<svg xmlns="http://www.w3.org/2000/svg" width="235.188" height="288.03" viewBox="0 0 235.188 288.03">
  <defs>
    <style>
      .cls-1 {
        fill: #fefefe;
        fill-rule: evenodd;
      }
    </style>
  </defs>
  <path id="_100_palos" data-name="100 palos" class="cls-1" d="M512.221,1784.76q6.618-.435,13.378-0.78V1672.26q-4.543,1.065-9.03,2.36a37.938,37.938,0,0,1-3.625,9.4,17.6,17.6,0,0,1-5.454,5.74,41.044,41.044,0,0,1-8.92,4.19v11.71q6.726-2.175,13.651-3.93v83.03Zm56.564-.26c6.831-.02,12.058-2.51,15.677-7.52s5.421-12.09,5.422-21.32v-60.62c0-9.21-1.805-16.51-5.422-21.8a17.673,17.673,0,0,0-15.677-7.96,18.261,18.261,0,0,0-15.655,8.43c-3.61,5.37-5.4,12.69-5.406,21.87v60.35c0,9.18,1.8,16.21,5.406,21.17s8.825,7.43,15.655,7.4h0Zm0-16.56c-4.806.03-7.2-3.72-7.2-11.33v-63.15c0-7.59,2.4-11.54,7.2-11.62,4.807-.06,7.21,3.83,7.21,11.44v63.24c0,7.62-2.4,11.4-7.21,11.42h0Zm56.234,17.98c6.569,0.36,11.5-1.7,14.892-6.05,3.391-4.37,5.061-10.64,5.063-19.05v-55.28c0-8.4-1.672-15.5-5.063-21.36a24.439,24.439,0,0,0-14.892-11.79c-6.571-1.81-11.689-.43-15.242,3.88s-5.35,11.14-5.349,20.25v59.87c0,9.11,1.791,16.26,5.349,21.39s8.671,7.79,15.242,8.14h0Zm0-15.76c-4.625-.39-6.972-4.22-6.969-11.58v-60.99c0-7.34,2.344-10.56,6.969-9.43,4.62,1.16,6.892,5.41,6.895,12.54v59.37c0,7.14-2.275,10.47-6.895,10.09h0Zm-172.2,145.07q5.435,4.11,11.185,7.79V1886.1q2.716,1.155,5.5,2.23c5.848,2.28,10.419,1.78,13.481-1.5s4.634-9.16,4.631-17.36v-9.99c0-8.2-1.563-14.65-4.631-19.13-3.062-4.51-7.633-6.89-13.481-7.45-5.774-.57-11.347-1.19-16.682-1.86v84.19h0ZM464,1873.14v-27.85q2.716,0.495,5.5.96a6.134,6.134,0,0,1,4.367,2.76c0.979,1.53,1.473,3.96,1.472,7.26v11.41c0,3.3-.493,5.51-1.472,6.59s-2.442,1.32-4.367.7Q466.717,1874.085,464,1873.14ZM492.877,1938q5.883,2.43,11.937,4.46,1.186-10.05,2.378-20.26,7.449,2.01,15.1,3.55v-0.32q1.222,11.265,2.45,22.63,6.747,1.53,13.605,2.61c-4.734-38.66-9.437-76.86-14.1-114.19q-9.134-.345-18.01-0.83C501.719,1871.16,497.261,1905.42,492.877,1938Zm15.867-30.04q2.869-26.025,5.768-52.83a1.974,1.974,0,0,0,.242.02q2.961,27.315,5.95,55.24Q514.665,1909.31,508.744,1907.96Zm42.5,44.35a216.845,216.845,0,0,0,36.751.39v-16.49c-7.605.5-15.248,0.64-22.875,0.43v-99.29q-6.953-.03-13.876-0.15v115.11Zm68.894-2.89a23.25,23.25,0,0,0,15.016-11.23c3.423-5.77,5.112-12.89,5.114-21.4v-56.02c0-8.52-1.691-14.93-5.114-19.44s-8.4-6.7-15.016-6.46-11.764,2.83-15.334,7.94-5.374,12.25-5.373,21.41v60.18c0,9.15,1.8,16.07,5.373,20.53s8.716,6.05,15.334,4.49h0Zm0-15.91c-4.659.97-7.018-2.36-7.016-9.76v-61.46c0-7.41,2.357-11.23,7.016-11.51s6.945,3.14,6.948,10.36v59.98c0,7.21-2.295,11.41-6.948,12.39h0Zm50.493-3.59a32.545,32.545,0,0,0,13.047-13.94,41.82,41.82,0,0,0,4.316-19.13c0-5.41-.867-9.63-2.63-12.91s-5-6.49-9.9-10.24a30.112,30.112,0,0,1-8.056-8.64,19.065,19.065,0,0,1-2.26-9.4c0-6.25,2.045-9.65,6.021-10.23a4.3,4.3,0,0,1,4.4,1.49c0.992,1.28,1.485,3.49,1.485,6.65v4.74q5.5-1.35,10.734-2.85v-3.57c0-6.97-1.347-12.02-4.115-15.48-2.774-3.43-6.911-5.04-12.613-4.55-5.782.49-10.358,2.93-13.527,7.61-3.176,4.66-4.794,11.15-4.792,19.27a35.181,35.181,0,0,0,3.088,15.38,37.143,37.143,0,0,0,10.643,12.54c3.963,3.06,6.6,5.59,8.031,7.97a17.88,17.88,0,0,1,2.128,9.31,17.2,17.2,0,0,1-1.541,7.87,10.156,10.156,0,0,1-4.573,4.55c-4.13,2.06-6.261-.2-6.256-6.57v-6.73q-5.769,2.2-11.75,4.11v5.86c0,8.32,1.578,14.16,4.681,17.18s7.643,2.98,13.434-.29h0Z" transform="translate(-452.812 -1665.28)"/>
</svg>
