<svg xmlns="http://www.w3.org/2000/svg" width="343.03" height="419.94" viewBox="0 0 343.03 419.94">
  <defs>
    <style>
      .cls-1 {
        fill: #fefefe;
        fill-rule: evenodd;
      }
    </style>
  </defs>
  <path id="_130_palos" data-name="130 palos" class="cls-1" d="M1187.82,2556.93q9.66-.645,19.52-1.14v-162.9q-6.63,1.56-13.17,3.43a55.78,55.78,0,0,1-5.29,13.72,25.729,25.729,0,0,1-7.96,8.36,59.512,59.512,0,0,1-13.01,6.11v17.07q9.81-3.165,19.91-5.73v121.08Zm81.96-.38c9.96-.03,17.49-3.55,22.59-10.63s7.63-17.28,7.63-30.74v-14.9q0-13.44-3.49-22.26a23.7,23.7,0,0,0-11.42-12.89v-0.49a21.653,21.653,0,0,0,10.87-11.55q3.48-8.13,3.49-21.81v-6.01c0-13.45-2.51-23.95-7.54-31.39-5.04-7.41-12.42-11.33-22.13-11.16a25.658,25.658,0,0,0-22.01,12.01c-5.08,7.66-7.61,18.24-7.61,31.62v8.85q9.525-.87,19.11-1.26v-11.08c0-10.43,3.25-15.86,9.77-15.99a8.363,8.363,0,0,1,7.38,4.06q2.76,4.125,2.76,12.82v12.31q0,9.66-3.04,13.75c-2.03,2.73-5.07,4.1-9.13,4.17-2.46.05-4.92,0.11-7.37,0.2v24.1c2.27-.06,4.54-0.12,6.82-0.15,4.67-.08,8.05,1.58,10.14,4.88s3.14,8.83,3.14,16.56v13.76q0,10.635-2.68,14.84a8.771,8.771,0,0,1-7.84,4.24c-7.01.04-10.51-5.42-10.51-16.51v-14.94q-9.57.24-19.1,0.77v13.63c0,13.39,2.53,23.56,7.61,30.64s12.59,10.59,22.56,10.55h0Zm82.57,2.07c9.58,0.52,16.77-2.48,21.72-8.83,4.95-6.37,7.39-15.51,7.39-27.77v-80.6c0-12.25-2.44-22.61-7.39-31.16-4.95-8.52-12.14-14.52-21.72-17.18s-17.05-.63-22.23,5.65-7.8,16.25-7.8,29.53v87.3c0,13.29,2.61,23.71,7.8,31.18,5.18,7.49,12.65,11.36,22.23,11.88h0Zm0-22.99c-6.74-.56-10.17-6.15-10.16-16.88v-88.93c-0.01-10.71,3.42-15.4,10.16-13.75,6.74,1.69,10.06,7.89,10.06,18.29v86.56c0,10.41-3.32,15.27-10.06,14.71h0Zm-251.18,211.53q7.935,6.015,16.32,11.37v-53.84q3.96,1.68,8.02,3.25c8.52,3.33,15.19,2.59,19.66-2.19s6.76-13.35,6.75-25.31v-14.56c0.01-11.97-2.28-21.37-6.75-27.91-4.47-6.56-11.14-10.04-19.66-10.86-8.43-.82-16.56-1.73-24.34-2.71v122.76Zm16.32-61.36v-40.62c2.64,0.49,5.31.95,8.02,1.41a8.933,8.933,0,0,1,6.37,4.02c1.42,2.23,2.14,5.77,2.14,10.58v16.64c0,4.82-.72,8.04-2.14,9.62s-3.57,1.91-6.37,1.02Q1121.445,2687.165,1117.49,2685.8Zm42.12,94.57q8.58,3.54,17.41,6.51,1.725-14.67,3.47-29.55,10.86,2.94,22.02,5.17v-0.46q1.785,16.425,3.58,32.99,9.84,2.235,19.84,3.81c-6.91-56.37-13.77-112.07-20.56-166.5q-13.32-.51-26.27-1.22C1172.51,2682.91,1166,2732.85,1159.61,2780.37Zm23.14-43.8q4.185-37.965,8.42-77.04l0.35,0.03q4.32,39.825,8.68,80.55Q1191.4,2738.52,1182.75,2736.57Zm61.99,64.66a316.742,316.742,0,0,0,53.61.58v-24.05c-11.1.73-22.25,0.94-33.37,0.63V2633.61q-10.14-.06-20.24-0.22v167.84Zm100.49-4.21c9.65-2.27,16.9-7.99,21.9-16.38q7.485-12.615,7.46-31.2v-81.68c0-12.43-2.47-21.77-7.46-28.35-5-6.56-12.25-9.76-21.9-9.42s-17.16,4.13-22.37,11.57-7.84,17.87-7.83,31.23v87.75c-0.01,13.35,2.62,23.43,7.83,29.93s12.72,8.82,22.37,6.55h0Zm0-23.2c-6.8,1.41-10.24-3.44-10.23-14.23v-89.62c-0.01-10.8,3.43-16.37,10.23-16.78s10.13,4.58,10.13,15.1v87.47c0,10.51-3.34,16.63-10.13,18.06h0Zm73.65-5.23a47.545,47.545,0,0,0,19.03-20.33,60.884,60.884,0,0,0,6.29-27.89c0-7.89-1.26-14.04-3.83-18.83s-7.3-9.47-14.44-14.93c-5.59-4.29-9.56-8.68-11.75-12.59a27.838,27.838,0,0,1-3.29-13.71c-0.01-9.12,2.98-14.07,8.78-14.93,2.84-.43,4.97.3,6.42,2.18s2.16,5.09,2.17,9.69v6.91c5.34-1.3,10.57-2.69,15.65-4.15v-5.2c0-10.17-1.96-17.52-6-22.57-4.05-5.01-10.08-7.35-18.4-6.64-8.43.71-15.11,4.27-19.73,11.09s-6.99,16.27-6.99,28.1c0,8.69,1.51,16.26,4.51,22.44,2.98,6.17,8.23,12.53,15.52,18.27,5.78,4.46,9.63,8.16,11.71,11.63s3.11,7.93,3.11,13.58q0,7.11-2.25,11.48a14.74,14.74,0,0,1-6.67,6.62c-6.02,3.01-9.13-.29-9.13-9.57v-9.82q-8.415,3.225-17.13,5.99v8.55c-0.01,12.13,2.3,20.64,6.82,25.05s11.15,4.34,19.6-.42h0Z" transform="translate(-1101.19 -2382.72)"/>
</svg>
