<?xml version="1.0" encoding="UTF-8"?><svg id="Capa_1" xmlns="http://www.w3.org/2000/svg" viewBox="0 0 560.36 578.85"><defs><style>.cls-1{fill-rule:evenodd;}</style></defs><path id="Rectángulo_10" class="cls-1" d="m11.43,507.46h.08c3.56,0,6.44,2.88,6.44,6.44,0,0,.33,2.56-.32,7.25-.54,2.98-2.28,6.1-.97,13.21.02,1.64,6.2,13.21,6.2,22.23,0,11.29-4.91,20.13-4.91,20.13H4.83s-4.83-9.41-4.83-20.7c0-8.87,4.48-14.62,6.6-22.06,1.07-5.41-.55-9.6-1.13-12.64-.78-4.09-.64-7.25-.64-7.25,0-3.65,2.96-6.6,6.6-6.6Z"/><path id="Rectángulo_10-2" class="cls-1" d="m34.3,507.46h.08c3.56,0,6.44,2.88,6.44,6.44,0,0,.33,2.56-.32,7.25-.54,2.98-2.28,6.1-.97,13.21.02,1.64,6.2,13.21,6.2,22.23,0,11.29-4.91,20.13-4.91,20.13h-13.13s-4.83-9.41-4.83-20.7c0-8.87,4.48-14.62,6.6-22.06,1.07-5.41-.55-9.6-1.13-12.64-.78-4.09-.64-7.25-.64-7.25,0-3.65,2.96-6.6,6.6-6.6Z"/><path id="Rectángulo_10-3" class="cls-1" d="m57.17,507.46h.08c3.56,0,6.44,2.88,6.44,6.44,0,0,.33,2.56-.32,7.25-.54,2.98-2.28,6.1-.97,13.21.02,1.64,6.2,13.21,6.2,22.23,0,11.29-4.91,20.13-4.91,20.13h-13.13s-4.83-9.41-4.83-20.7c0-8.87,4.48-14.62,6.6-22.06,1.07-5.41-.55-9.6-1.13-12.64-.78-4.09-.64-7.25-.64-7.25,0-3.65,2.96-6.6,6.6-6.6Z"/><path id="Rectángulo_10-4" class="cls-1" d="m77.7,507.46h.08c3.56,0,6.44,2.88,6.44,6.44,0,0,.33,2.56-.32,7.25-.54,2.98-2.28,6.1-.97,13.21.02,1.64,6.2,13.21,6.2,22.23,0,11.29-4.91,20.13-4.91,20.13h-13.13s-4.83-9.41-4.83-20.7c0-8.87,4.48-14.62,6.6-22.06,1.07-5.41-.55-9.6-1.13-12.64-.78-4.09-.64-7.25-.64-7.25,0-3.65,2.96-6.6,6.6-6.6Z"/><path id="Rectángulo_10-5" class="cls-1" d="m100.57,507.46h.08c3.56,0,6.44,2.88,6.44,6.44,0,0,.33,2.56-.32,7.25-.54,2.98-2.28,6.1-.97,13.21.02,1.64,6.2,13.21,6.2,22.23,0,11.29-4.91,20.13-4.91,20.13h-13.13s-4.83-9.41-4.83-20.7c0-8.87,4.48-14.62,6.6-22.06,1.07-5.41-.55-9.6-1.13-12.64-.78-4.09-.64-7.25-.64-7.25,0-3.65,2.96-6.6,6.6-6.6Z"/><path id="Rectángulo_10-6" class="cls-1" d="m123.44,507.46h.08c3.56,0,6.44,2.88,6.44,6.44,0,0,.33,2.56-.32,7.25-.54,2.98-2.28,6.1-.97,13.21.02,1.64,6.2,13.21,6.2,22.23,0,11.29-4.91,20.13-4.91,20.13h-13.13s-4.83-9.41-4.83-20.7c0-8.87,4.48-14.62,6.6-22.06,1.07-5.41-.55-9.6-1.13-12.64-.78-4.09-.64-7.25-.64-7.25,0-3.65,2.96-6.6,6.6-6.6Z"/><path id="Rectángulo_10-7" class="cls-1" d="m146.31,507.46h.08c3.56,0,6.44,2.88,6.44,6.44,0,0,.33,2.56-.32,7.25-.54,2.98-2.28,6.1-.97,13.21.02,1.64,6.2,13.21,6.2,22.23,0,11.29-4.91,20.13-4.91,20.13h-13.13s-4.83-9.41-4.83-20.7c0-8.87,4.48-14.62,6.6-22.06,1.07-5.41-.55-9.6-1.13-12.64-.78-4.09-.64-7.25-.64-7.25,0-3.65,2.96-6.6,6.6-6.6Z"/><path id="Rectángulo_10-8" class="cls-1" d="m169.18,507.46h.08c3.56,0,6.44,2.88,6.44,6.44,0,0,.33,2.56-.32,7.25-.54,2.98-2.28,6.1-.97,13.21.02,1.64,6.2,13.21,6.2,22.23,0,11.29-4.91,20.13-4.91,20.13h-13.13s-4.83-9.41-4.83-20.7c0-8.87,4.48-14.62,6.6-22.06,1.07-5.41-.55-9.6-1.13-12.64-.78-4.09-.64-7.25-.64-7.25,0-3.65,2.96-6.6,6.6-6.6Z"/><path id="Rectángulo_10-9" class="cls-1" d="m192.05,507.46h.08c3.56,0,6.44,2.88,6.44,6.44,0,0,.33,2.56-.32,7.25-.54,2.98-2.28,6.1-.97,13.21.02,1.64,6.2,13.21,6.2,22.23,0,11.29-4.91,20.13-4.91,20.13h-13.13s-4.83-9.41-4.83-20.7c0-8.87,4.48-14.62,6.6-22.06,1.07-5.41-.55-9.6-1.13-12.64-.78-4.09-.64-7.25-.64-7.25,0-3.65,2.96-6.6,6.6-6.6Z"/><path id="Rectángulo_10-10" class="cls-1" d="m214.91,507.46h.08c3.56,0,6.44,2.88,6.44,6.44,0,0,.33,2.56-.32,7.25-.54,2.98-2.28,6.1-.97,13.21.02,1.64,6.2,13.21,6.2,22.23,0,11.29-4.91,20.13-4.91,20.13h-13.13s-4.83-9.41-4.83-20.7c0-8.87,4.48-14.62,6.6-22.06,1.07-5.41-.55-9.6-1.13-12.64-.78-4.09-.64-7.25-.64-7.25,0-3.65,2.96-6.6,6.6-6.6Z"/><path id="Rectángulo_10-11" class="cls-1" d="m237.78,507.46h.08c3.56,0,6.44,2.88,6.44,6.44,0,0,.33,2.56-.32,7.25-.54,2.98-2.28,6.1-.97,13.21.02,1.64,6.2,13.21,6.2,22.23,0,11.29-4.91,20.13-4.91,20.13h-13.13s-4.83-9.41-4.83-20.7c0-8.87,4.48-14.62,6.6-22.06,1.07-5.41-.55-9.6-1.13-12.64-.78-4.09-.64-7.25-.64-7.25,0-3.65,2.96-6.6,6.6-6.6Z"/><path id="Rectángulo_10-12" class="cls-1" d="m260.65,507.46h.08c3.56,0,6.44,2.88,6.44,6.44,0,0,.33,2.56-.32,7.25-.54,2.98-2.28,6.1-.97,13.21.02,1.64,6.2,13.21,6.2,22.23,0,11.29-4.91,20.13-4.91,20.13h-13.13s-4.83-9.41-4.83-20.7c0-8.87,4.48-14.62,6.6-22.06,1.07-5.41-.55-9.6-1.13-12.64-.78-4.09-.64-7.25-.64-7.25,0-3.65,2.96-6.6,6.6-6.6Z"/><path id="Rectángulo_10-13" class="cls-1" d="m281.18,507.46h.08c3.56,0,6.44,2.88,6.44,6.44,0,0,.33,2.56-.32,7.25-.54,2.98-2.28,6.1-.97,13.21.02,1.64,6.2,13.21,6.2,22.23,0,11.29-4.91,20.13-4.91,20.13h-13.13s-4.83-9.41-4.83-20.7c0-8.87,4.48-14.62,6.6-22.06,1.07-5.41-.55-9.6-1.13-12.64-.78-4.09-.64-7.25-.64-7.25,0-3.65,2.96-6.6,6.6-6.6Z"/><path id="Rectángulo_10-14" class="cls-1" d="m304.05,507.46h.08c3.56,0,6.44,2.88,6.44,6.44,0,0,.33,2.56-.32,7.25-.54,2.98-2.28,6.1-.97,13.21.02,1.64,6.2,13.21,6.2,22.23,0,11.29-4.91,20.13-4.91,20.13h-13.13s-4.83-9.41-4.83-20.7c0-8.87,4.48-14.62,6.6-22.06,1.07-5.41-.55-9.6-1.13-12.64-.78-4.09-.64-7.25-.64-7.25,0-3.65,2.96-6.6,6.6-6.6Z"/><path id="Rectángulo_10-15" class="cls-1" d="m326.92,507.46h.08c3.56,0,6.44,2.88,6.44,6.44,0,0,.33,2.56-.32,7.25-.54,2.98-2.28,6.1-.97,13.21.02,1.64,6.2,13.21,6.2,22.23,0,11.29-4.91,20.13-4.91,20.13h-13.13s-4.83-9.41-4.83-20.7c0-8.87,4.48-14.62,6.6-22.06,1.07-5.41-.55-9.6-1.13-12.64-.78-4.09-.64-7.25-.64-7.25,0-3.65,2.96-6.6,6.6-6.6Z"/><path id="Rectángulo_10-16" class="cls-1" d="m349.79,507.46h.08c3.56,0,6.44,2.88,6.44,6.44,0,0,.33,2.56-.32,7.25-.54,2.98-2.28,6.1-.97,13.21.02,1.64,6.2,13.21,6.2,22.23,0,11.29-4.91,20.13-4.91,20.13h-13.13s-4.83-9.41-4.83-20.7c0-8.87,4.48-14.62,6.6-22.06,1.07-5.41-.55-9.6-1.13-12.64-.78-4.09-.64-7.25-.64-7.25,0-3.65,2.96-6.6,6.6-6.6Z"/><path id="Rectángulo_10-17" class="cls-1" d="m371.32,507.49h.08c3.56-.14,6.55,2.63,6.69,6.19,0,0,.43,2.54-.04,7.25-.42,3-2.04,6.19-.46,13.23.09,1.63,6.71,12.96,7.05,21.97.44,11.28-4.13,20.31-4.13,20.31l-13.12.51s-5.19-9.21-5.63-20.49c-.34-8.86,3.92-14.78,5.75-22.3.86-5.45-.92-9.58-1.61-12.59-.94-4.05-.92-7.22-.92-7.22-.14-3.64,2.7-6.71,6.34-6.85Z"/><path id="Rectángulo_10-18" class="cls-1" d="m393.25,507.54h.08c3.55-.24,6.62,2.45,6.85,6,0,0,.5,2.53.15,7.25-.34,3.01-1.87,6.24-.1,13.24.13,1.63,7.05,12.78,7.65,21.77.74,11.26-3.58,20.41-3.58,20.41l-13.1.86s-5.44-9.07-6.18-20.33c-.58-8.85,3.51-14.88,5.14-22.45.71-5.47-1.18-9.55-1.95-12.54-1.05-4.03-1.12-7.19-1.12-7.19-.24-3.64,2.52-6.78,6.16-7.02Z"/><path id="Rectángulo_10-19" class="cls-1" d="m63.8,438.21h.08c3.56,0,6.44,2.88,6.44,6.44,0,0,.33,2.56-.32,7.25-.54,2.98-2.28,6.1-.97,13.21.02,1.64,6.2,13.21,6.2,22.23,0,11.29-4.91,20.13-4.91,20.13h-13.13s-4.83-9.41-4.83-20.7c0-8.87,4.48-14.62,6.6-22.06,1.07-5.41-.55-9.6-1.13-12.64-.78-4.09-.64-7.25-.64-7.25,0-3.65,2.96-6.6,6.6-6.6Z"/><path id="Rectángulo_10-20" class="cls-1" d="m86.67,438.21h.08c3.56,0,6.44,2.88,6.44,6.44,0,0,.33,2.56-.32,7.25-.54,2.98-2.28,6.1-.97,13.21.02,1.64,6.2,13.21,6.2,22.23,0,11.29-4.91,20.13-4.91,20.13h-13.13s-4.83-9.41-4.83-20.7c0-8.87,4.48-14.62,6.6-22.06,1.07-5.41-.55-9.6-1.13-12.64-.78-4.09-.64-7.25-.64-7.25,0-3.65,2.96-6.6,6.6-6.6Z"/><path id="Rectángulo_10-21" class="cls-1" d="m109.54,438.21h.08c3.56,0,6.44,2.88,6.44,6.44,0,0,.33,2.56-.32,7.25-.54,2.98-2.28,6.1-.97,13.21.02,1.64,6.2,13.21,6.2,22.23,0,11.29-4.91,20.13-4.91,20.13h-13.13s-4.83-9.41-4.83-20.7c0-8.87,4.48-14.62,6.6-22.06,1.07-5.41-.55-9.6-1.13-12.64-.78-4.09-.64-7.25-.64-7.25,0-3.65,2.96-6.6,6.6-6.6Z"/><path id="Rectángulo_10-22" class="cls-1" d="m130.07,438.21h.08c3.56,0,6.44,2.88,6.44,6.44,0,0,.33,2.56-.32,7.25-.54,2.98-2.28,6.1-.97,13.21.02,1.64,6.2,13.21,6.2,22.23,0,11.29-4.91,20.13-4.91,20.13h-13.13s-4.83-9.41-4.83-20.7c0-8.87,4.48-14.62,6.6-22.06,1.07-5.41-.55-9.6-1.13-12.64-.78-4.09-.64-7.25-.64-7.25,0-3.65,2.96-6.6,6.6-6.6Z"/><path id="Rectángulo_10-23" class="cls-1" d="m152.94,438.21h.08c3.56,0,6.44,2.88,6.44,6.44,0,0,.33,2.56-.32,7.25-.54,2.98-2.28,6.1-.97,13.21.02,1.64,6.2,13.21,6.2,22.23,0,11.29-4.91,20.13-4.91,20.13h-13.13s-4.83-9.41-4.83-20.7c0-8.87,4.48-14.62,6.6-22.06,1.07-5.41-.55-9.6-1.13-12.64-.78-4.09-.64-7.25-.64-7.25,0-3.65,2.96-6.6,6.6-6.6Z"/><path id="Rectángulo_10-24" class="cls-1" d="m175.81,438.21h.08c3.56,0,6.44,2.88,6.44,6.44,0,0,.33,2.56-.32,7.25-.54,2.98-2.28,6.1-.97,13.21.02,1.64,6.2,13.21,6.2,22.23,0,11.29-4.91,20.13-4.91,20.13h-13.13s-4.83-9.41-4.83-20.7c0-8.87,4.48-14.62,6.6-22.06,1.07-5.41-.55-9.6-1.13-12.64-.78-4.09-.64-7.25-.64-7.25,0-3.65,2.96-6.6,6.6-6.6Z"/><path id="Rectángulo_10-25" class="cls-1" d="m198.67,438.21h.08c3.56,0,6.44,2.88,6.44,6.44,0,0,.33,2.56-.32,7.25-.54,2.98-2.28,6.1-.97,13.21.02,1.64,6.2,13.21,6.2,22.23,0,11.29-4.91,20.13-4.91,20.13h-13.13s-4.83-9.41-4.83-20.7c0-8.87,4.48-14.62,6.6-22.06,1.07-5.41-.55-9.6-1.13-12.64-.78-4.09-.64-7.25-.64-7.25,0-3.65,2.96-6.6,6.6-6.6Z"/><path id="Rectángulo_10-26" class="cls-1" d="m221.54,438.21h.08c3.56,0,6.44,2.88,6.44,6.44,0,0,.33,2.56-.32,7.25-.54,2.98-2.28,6.1-.97,13.21.02,1.64,6.2,13.21,6.2,22.23,0,11.29-4.91,20.13-4.91,20.13h-13.13s-4.83-9.41-4.83-20.7c0-8.87,4.48-14.62,6.6-22.06,1.07-5.41-.55-9.6-1.13-12.64-.78-4.09-.64-7.25-.64-7.25,0-3.65,2.96-6.6,6.6-6.6Z"/><path id="Rectángulo_10-27" class="cls-1" d="m244.41,438.21h.08c3.56,0,6.44,2.88,6.44,6.44,0,0,.33,2.56-.32,7.25-.54,2.98-2.28,6.1-.97,13.21.02,1.64,6.2,13.21,6.2,22.23,0,11.29-4.91,20.13-4.91,20.13h-13.13s-4.83-9.41-4.83-20.7c0-8.87,4.48-14.62,6.6-22.06,1.07-5.41-.55-9.6-1.13-12.64-.78-4.09-.64-7.25-.64-7.25,0-3.65,2.96-6.6,6.6-6.6Z"/><path id="Rectángulo_10-28" class="cls-1" d="m131.24,368.96h.08c3.56,0,6.44,2.88,6.44,6.44,0,0,.33,2.56-.32,7.25-.54,2.98-2.28,6.1-.97,13.21.02,1.64,6.2,13.21,6.2,22.23,0,11.29-4.91,20.13-4.91,20.13h-13.13s-4.83-9.41-4.83-20.7c0-8.87,4.48-14.62,6.6-22.06,1.07-5.41-.55-9.6-1.13-12.64-.78-4.09-.64-7.25-.64-7.25,0-3.65,2.96-6.6,6.6-6.6Z"/><path id="Rectángulo_10-29" class="cls-1" d="m154.11,368.96h.08c3.56,0,6.44,2.88,6.44,6.44,0,0,.33,2.56-.32,7.25-.54,2.98-2.28,6.1-.97,13.21.02,1.64,6.2,13.21,6.2,22.23,0,11.29-4.91,20.13-4.91,20.13h-13.13s-4.83-9.41-4.83-20.7c0-8.87,4.48-14.62,6.6-22.06,1.07-5.41-.55-9.6-1.13-12.64-.78-4.09-.64-7.25-.64-7.25,0-3.65,2.96-6.6,6.6-6.6Z"/><path id="Rectángulo_10-30" class="cls-1" d="m176.98,368.96h.08c3.56,0,6.44,2.88,6.44,6.44,0,0,.33,2.56-.32,7.25-.54,2.98-2.28,6.1-.97,13.21.02,1.64,6.2,13.21,6.2,22.23,0,11.29-4.91,20.13-4.91,20.13h-13.13s-4.83-9.41-4.83-20.7c0-8.87,4.48-14.62,6.6-22.06,1.07-5.41-.55-9.6-1.13-12.64-.78-4.09-.64-7.25-.64-7.25,0-3.65,2.96-6.6,6.6-6.6Z"/><path id="Rectángulo_10-31" class="cls-1" d="m197.5,368.96h.08c3.56,0,6.44,2.88,6.44,6.44,0,0,.33,2.56-.32,7.25-.54,2.98-2.28,6.1-.97,13.21.02,1.64,6.2,13.21,6.2,22.23,0,11.29-4.91,20.13-4.91,20.13h-13.13s-4.83-9.41-4.83-20.7c0-8.87,4.48-14.62,6.6-22.06,1.07-5.41-.55-9.6-1.13-12.64-.78-4.09-.64-7.25-.64-7.25,0-3.65,2.96-6.6,6.6-6.6Z"/><path id="Rectángulo_10-32" class="cls-1" d="m220.37,368.96h.08c3.56,0,6.44,2.88,6.44,6.44,0,0,.33,2.56-.32,7.25-.54,2.98-2.28,6.1-.97,13.21.02,1.64,6.2,13.21,6.2,22.23,0,11.29-4.91,20.13-4.91,20.13h-13.13s-4.83-9.41-4.83-20.7c0-8.87,4.48-14.62,6.6-22.06,1.07-5.41-.55-9.6-1.13-12.64-.78-4.09-.64-7.25-.64-7.25,0-3.65,2.96-6.6,6.6-6.6Z"/><path id="Rectángulo_10-33" class="cls-1" d="m243.24,368.96h.08c3.56,0,6.44,2.88,6.44,6.44,0,0,.33,2.56-.32,7.25-.54,2.98-2.28,6.1-.97,13.21.02,1.64,6.2,13.21,6.2,22.23,0,11.29-4.91,20.13-4.91,20.13h-13.13s-4.83-9.41-4.83-20.7c0-8.87,4.48-14.62,6.6-22.06,1.07-5.41-.55-9.6-1.13-12.64-.78-4.09-.64-7.25-.64-7.25,0-3.65,2.96-6.6,6.6-6.6Z"/><path id="Rectángulo_10-34" class="cls-1" d="m266.11,368.96h.08c3.56,0,6.44,2.88,6.44,6.44,0,0,.33,2.56-.32,7.25-.54,2.98-2.28,6.1-.97,13.21.02,1.64,6.2,13.21,6.2,22.23,0,11.29-4.91,20.13-4.91,20.13h-13.13s-4.83-9.41-4.83-20.7c0-8.87,4.48-14.62,6.6-22.06,1.07-5.41-.55-9.6-1.13-12.64-.78-4.09-.64-7.25-.64-7.25,0-3.65,2.96-6.6,6.6-6.6Z"/><path id="Rectángulo_10-35" class="cls-1" d="m284.79,369.21h.08c3.53-.44,6.74,2.07,7.17,5.6,0,0,.64,2.5.56,7.23-.17,3.02-1.52,6.34.64,13.23.22,1.62,7.76,12.36,8.85,21.31,1.37,11.2-2.44,20.58-2.44,20.58l-13.03,1.59s-5.94-8.75-7.3-19.96c-1.07-8.8,2.68-15.05,3.88-22.7.4-5.5-1.71-9.47-2.65-12.41-1.27-3.96-1.52-7.12-1.52-7.12-.44-3.62,2.13-6.91,5.75-7.35Z"/><path id="Rectángulo_10-36" class="cls-1" d="m306.79,369.33h.08c3.52-.53,6.79,1.9,7.31,5.42,0,0,.71,2.48.74,7.22-.1,3.02-1.36,6.37.97,13.21.26,1.61,8.07,12.16,9.38,21.08,1.65,11.16-1.92,20.63-1.92,20.63l-12.98,1.92s-6.15-8.6-7.8-19.77c-1.3-8.77,2.3-15.12,3.31-22.79.26-5.51-1.95-9.42-2.96-12.34-1.37-3.93-1.7-7.08-1.7-7.08-.53-3.61,1.96-6.96,5.57-7.5Z"/><path id="Rectángulo_10-37" class="cls-1" d="m197.5,297.78h.08c3.56,0,6.44,2.88,6.44,6.44,0,0,.33,2.56-.32,7.25-.54,2.98-2.28,6.1-.97,13.21.02,1.64,6.2,13.21,6.2,22.23,0,11.29-4.91,20.13-4.91,20.13h-13.13s-4.83-9.41-4.83-20.7c0-8.87,4.48-14.62,6.6-22.06,1.07-5.41-.55-9.6-1.13-12.64-.78-4.09-.64-7.25-.64-7.25,0-3.65,2.96-6.6,6.6-6.6Z"/><path id="Rectángulo_10-38" class="cls-1" d="m220.37,297.78h.08c3.56,0,6.44,2.88,6.44,6.44,0,0,.33,2.56-.32,7.25-.54,2.98-2.28,6.1-.97,13.21.02,1.64,6.2,13.21,6.2,22.23,0,11.29-4.91,20.13-4.91,20.13h-13.13s-4.83-9.41-4.83-20.7c0-8.87,4.48-14.62,6.6-22.06,1.07-5.41-.55-9.6-1.13-12.64-.78-4.09-.64-7.25-.64-7.25,0-3.65,2.96-6.6,6.6-6.6Z"/><path id="Rectángulo_10-39" class="cls-1" d="m242.07,297.78h.08c3.56,0,6.44,2.88,6.44,6.44,0,0,.33,2.56-.32,7.25-.54,2.98-2.28,6.1-.97,13.21.02,1.64,6.2,13.21,6.2,22.23,0,11.29-4.91,20.13-4.91,20.13h-13.13s-4.83-9.41-4.83-20.7c0-8.87,4.48-14.62,6.6-22.06,1.07-5.41-.55-9.6-1.13-12.64-.78-4.09-.64-7.25-.64-7.25,0-3.65,2.96-6.6,6.6-6.6Z"/><path id="Rectángulo_10-40" class="cls-1" d="m264.87,297.79h.08c3.56-.09,6.51,2.72,6.6,6.27,0,0,.4,2.55-.14,7.25-.46,2.99-2.12,6.16-.63,13.23.07,1.63,6.53,13.05,6.76,22.06.29,11.28-4.4,20.25-4.4,20.25l-13.12.33s-5.07-9.28-5.36-20.57c-.23-8.86,4.11-14.73,6.04-22.22.93-5.43-.79-9.59-1.45-12.61-.88-4.07-.83-7.23-.83-7.23-.09-3.65,2.79-6.68,6.43-6.77Z"/><path id="Rectángulo_10-41" class="cls-1" d="m287.45,297.86h.08c3.55-.24,6.62,2.45,6.85,6,0,0,.5,2.53.16,7.25-.34,3.01-1.87,6.24-.09,13.24.13,1.63,7.06,12.78,7.65,21.77.74,11.26-3.57,20.41-3.57,20.41l-13.1.87s-5.44-9.07-6.19-20.33c-.58-8.85,3.51-14.88,5.13-22.45.71-5.47-1.18-9.55-1.96-12.54-1.05-4.03-1.12-7.19-1.12-7.19-.24-3.64,2.51-6.78,6.15-7.02Z"/><path id="Rectángulo_10-42" class="cls-1" d="m307.23,298.08h.08c3.53-.48,6.77,2,7.23,5.53,0,0,.67,2.49.63,7.23-.14,3.02-1.46,6.35.78,13.22.24,1.62,7.88,12.28,9.07,21.22,1.48,11.19-2.22,20.6-2.22,20.6l-13.01,1.72s-6.03-8.69-7.51-19.88c-1.16-8.79,2.52-15.08,3.65-22.74.35-5.5-1.81-9.45-2.78-12.38-1.31-3.95-1.59-7.1-1.59-7.1-.48-3.62,2.06-6.93,5.68-7.41Z"/><path id="Rectángulo_10-43" class="cls-1" d="m325.82,298.41l.08-.02c3.49-.67,6.87,1.61,7.54,5.11,0,0,.81,2.45,1.06,7.18.04,3.02-1.08,6.43,1.55,13.15.33,1.6,8.59,11.8,10.29,20.65,2.14,11.08-1.01,20.7-1.01,20.7l-12.89,2.48s-6.52-8.32-8.66-19.41c-1.68-8.7,1.64-15.2,2.31-22.91.02-5.51-2.36-9.33-3.5-12.2-1.54-3.87-2-6.99-2-6.99-.69-3.58,1.65-7.04,5.23-7.73Z"/><path id="Rectángulo_10-44" class="cls-1" d="m344.46,301.59l.08-.03c3.34-1.21,7.04.51,8.25,3.86,0,0,1.19,2.29,2.17,6.92.51,2.98-.06,6.52,3.6,12.74.58,1.53,10.34,10.3,13.41,18.78,3.85,10.61,2.25,20.6,2.25,20.6l-12.34,4.48s-7.75-7.2-11.6-17.8c-3.02-8.33-.77-15.27-1.32-22.99-.84-5.45-3.79-8.84-5.37-11.5-2.13-3.58-3.08-6.59-3.08-6.59-1.24-3.43.53-7.22,3.95-8.46Z"/><path id="Rectángulo_10-45" class="cls-1" d="m362.25,301.63l.07-.04c3.16-1.63,7.05-.39,8.68,2.78,0,0,1.47,2.12,3.03,6.59.89,2.89.77,6.47,5.19,12.18.77,1.44,11.56,8.91,15.69,16.92,5.17,10.03,4.85,20.15,4.85,20.15l-11.67,6.01s-8.6-6.15-13.77-16.18c-4.06-7.88-2.71-15.05-4.24-22.64-1.53-5.3-4.89-8.29-6.79-10.72-2.56-3.28-3.89-6.15-3.89-6.15-1.67-3.24-.4-7.22,2.85-8.89Z"/><path id="Rectángulo_10-46" class="cls-1" d="m238.5,226.61h.08c3.56,0,6.44,2.88,6.44,6.44,0,0,.33,2.56-.32,7.25-.54,2.98-2.28,6.1-.97,13.21.02,1.64,6.2,13.21,6.2,22.23,0,11.29-4.91,20.13-4.91,20.13h-13.13s-4.83-9.41-4.83-20.7c0-8.87,4.48-14.62,6.6-22.06,1.07-5.41-.55-9.6-1.13-12.64-.78-4.09-.64-7.25-.64-7.25,0-3.65,2.96-6.6,6.6-6.6Z"/><path id="Rectángulo_10-47" class="cls-1" d="m261.37,226.61h.08c3.56,0,6.44,2.88,6.44,6.44,0,0,.33,2.56-.32,7.25-.54,2.98-2.28,6.1-.97,13.21.02,1.64,6.2,13.21,6.2,22.23,0,11.29-4.91,20.13-4.91,20.13h-13.13s-4.83-9.41-4.83-20.7c0-8.87,4.48-14.62,6.6-22.06,1.07-5.41-.55-9.6-1.13-12.64-.78-4.09-.64-7.25-.64-7.25,0-3.65,2.96-6.6,6.6-6.6Z"/><path id="Rectángulo_10-48" class="cls-1" d="m284.24,226.61h.08c3.56,0,6.44,2.88,6.44,6.44,0,0,.33,2.56-.32,7.25-.54,2.98-2.28,6.1-.97,13.21.02,1.64,6.2,13.21,6.2,22.23,0,11.29-4.91,20.13-4.91,20.13h-13.13s-4.83-9.41-4.83-20.7c0-8.87,4.48-14.62,6.6-22.06,1.07-5.41-.55-9.6-1.13-12.64-.78-4.09-.64-7.25-.64-7.25,0-3.65,2.96-6.6,6.6-6.6Z"/><path id="Rectángulo_10-49" class="cls-1" d="m307.11,226.61h.08c3.56,0,6.44,2.88,6.44,6.44,0,0,.33,2.56-.32,7.25-.54,2.98-2.28,6.1-.97,13.21.02,1.64,6.2,13.21,6.2,22.23,0,11.29-4.91,20.13-4.91,20.13h-13.13s-4.83-9.41-4.83-20.7c0-8.87,4.48-14.62,6.6-22.06,1.07-5.41-.55-9.6-1.13-12.64-.78-4.09-.64-7.25-.64-7.25,0-3.65,2.96-6.6,6.6-6.6Z"/><path id="Rectángulo_10-50" class="cls-1" d="m322.7,226.89h.08c3.53-.47,6.76,2.02,7.21,5.55,0,0,.66,2.49.61,7.23-.15,3.02-1.48,6.35.73,13.22.23,1.62,7.84,12.31,9,21.25,1.45,11.19-2.29,20.59-2.29,20.59l-13.02,1.68s-6-8.71-7.44-19.91c-1.14-8.79,2.57-15.07,3.72-22.73.36-5.5-1.77-9.45-2.74-12.39-1.3-3.95-1.57-7.11-1.57-7.11-.47-3.62,2.09-6.93,5.7-7.39Z"/><path id="Rectángulo_10-51" class="cls-1" d="m354.76,226.61h.08c3.56,0,6.44,2.88,6.44,6.44,0,0,.33,2.56-.32,7.25-.54,2.98-2.28,6.1-.97,13.21.02,1.64,6.2,13.21,6.2,22.23,0,11.29-4.91,20.13-4.91,20.13h-13.13s-4.83-9.41-4.83-20.7c0-8.87,4.48-14.62,6.6-22.06,1.07-5.41-.55-9.6-1.13-12.64-.78-4.09-.64-7.25-.64-7.25,0-3.65,2.96-6.6,6.6-6.6Z"/><path id="Rectángulo_10-52" class="cls-1" d="m374.54,227h.08c3.56,0,6.44,2.88,6.44,6.44,0,0,.33,2.56-.32,7.25-.54,2.98-2.28,6.1-.97,13.21.02,1.64,6.2,13.21,6.2,22.23,0,11.29-4.91,20.13-4.91,20.13h-13.13s-4.83-9.41-4.83-20.7c0-8.87,4.48-14.62,6.6-22.06,1.07-5.41-.55-9.6-1.13-12.64-.78-4.09-.64-7.25-.64-7.25,0-3.65,2.96-6.6,6.6-6.6Z"/><path id="Rectángulo_10-53" class="cls-1" d="m393.1,226.75h.08c3.54-.33,6.68,2.28,7,5.82,0,0,.57,2.52.34,7.25-.27,3.01-1.72,6.29.23,13.24.17,1.63,7.37,12.6,8.19,21.57,1.02,11.24-3.07,20.49-3.07,20.49l-13.07,1.19s-5.66-8.93-6.69-20.17c-.8-8.83,3.14-14.96,4.58-22.57.57-5.48-1.42-9.51-2.27-12.49-1.15-4-1.3-7.16-1.3-7.16-.33-3.63,2.35-6.84,5.98-7.17Z"/><path id="Rectángulo_10-54" class="cls-1" d="m284.15,158.07l.08-.02c3.48-.72,6.89,1.52,7.61,5.01,0,0,.85,2.44,1.15,7.16.08,3.02-1,6.44,1.72,13.13.36,1.6,8.74,11.69,10.57,20.51,2.28,11.05-.74,20.71-.74,20.71l-12.85,2.65s-6.63-8.24-8.92-19.29c-1.79-8.68,1.43-15.22,2-22.94-.05-5.51-2.48-9.29-3.66-12.15-1.59-3.85-2.1-6.97-2.1-6.97-.74-3.57,1.56-7.06,5.13-7.8Z"/><path id="Rectángulo_10-55" class="cls-1" d="m302.54,158.76l.08-.02c3.41-1,6.99.95,8,4.36,0,0,1.04,2.36,1.73,7.04.32,3.01-.47,6.5,2.8,12.94.49,1.56,9.67,10.93,12.21,19.58,3.18,10.83.96,20.7.96,20.7l-12.59,3.7s-7.29-7.66-10.47-18.49c-2.5-8.51.18-15.29.12-23.03-.5-5.49-3.23-9.06-4.65-11.81-1.9-3.7-2.66-6.77-2.66-6.77-1.03-3.5.97-7.17,4.47-8.2Z"/><path id="Rectángulo_10-56" class="cls-1" d="m324.07,158.41l.08-.02c3.45-.87,6.95,1.22,7.82,4.67,0,0,.95,2.4,1.46,7.11.21,3.02-.72,6.48,2.3,13.04.43,1.58,9.25,11.29,11.46,20.03,2.77,10.94.17,20.72.17,20.72l-12.73,3.22s-6.99-7.94-9.76-18.88c-2.17-8.59.76-15.27,1-23.01-.29-5.5-2.88-9.18-4.19-11.98-1.76-3.77-2.4-6.87-2.4-6.87-.89-3.54,1.25-7.13,4.78-8.02Z"/><path id="Rectángulo_10-57" class="cls-1" d="m356.12,157.48h.08c3.55-.31,6.66,2.32,6.96,5.87,0,0,.55,2.52.29,7.25-.28,3.01-1.76,6.28.16,13.24.16,1.63,7.3,12.64,8.06,21.62.96,11.25-3.19,20.48-3.19,20.48l-13.08,1.11s-5.61-8.97-6.57-20.21c-.75-8.83,3.23-14.94,4.71-22.54.6-5.48-1.36-9.52-2.19-12.5-1.12-4.01-1.26-7.17-1.26-7.17-.31-3.63,2.39-6.83,6.02-7.14Z"/><path id="Rectángulo_10-58" class="cls-1" d="m382.25,159.61h.08c3.56,0,6.44,2.88,6.44,6.44,0,0,.33,2.56-.32,7.25-.54,2.98-2.28,6.1-.97,13.21.02,1.64,6.2,13.21,6.2,22.23,0,11.29-4.91,20.13-4.91,20.13h-13.13s-4.83-9.41-4.83-20.7c0-8.87,4.48-14.62,6.6-22.06,1.07-5.41-.55-9.6-1.13-12.64-.78-4.09-.64-7.25-.64-7.25,0-3.65,2.96-6.6,6.6-6.6Z"/><path id="Rectángulo_10-59" class="cls-1" d="m414.75,161.67h.08c3.52.55,5.93,3.83,5.4,7.35,0,0-.05,2.58-1.41,7.12-.98,2.86-3.17,5.69-2.94,12.91-.22,1.62,4.14,14,2.78,22.91-1.7,11.16-7.89,19.16-7.89,19.16l-12.98-1.98s-3.36-10.03-1.66-21.19c1.34-8.76,6.63-13.78,9.85-20.82,1.87-5.19.9-9.58.79-12.67-.15-4.16.45-7.26.45-7.26.55-3.61,3.92-6.08,7.52-5.53Z"/><path id="Rectángulo_10-60" class="cls-1" d="m269.74,438.21h.08c3.56,0,6.44,2.88,6.44,6.44,0,0,.33,2.56-.32,7.25-.54,2.98-2.28,6.1-.97,13.21.02,1.64,6.2,13.21,6.2,22.23,0,11.29-4.91,20.13-4.91,20.13h-13.13s-4.83-9.41-4.83-20.7c0-8.87,4.48-14.62,6.6-22.06,1.07-5.41-.55-9.6-1.13-12.64-.78-4.09-.64-7.25-.64-7.25,0-3.65,2.96-6.6,6.6-6.6Z"/><path id="Rectángulo_10-61" class="cls-1" d="m292.61,438.21h.08c3.56,0,6.44,2.88,6.44,6.44,0,0,.33,2.56-.32,7.25-.54,2.98-2.28,6.1-.97,13.21.02,1.64,6.2,13.21,6.2,22.23,0,11.29-4.91,20.13-4.91,20.13h-13.13s-4.83-9.41-4.83-20.7c0-8.87,4.48-14.62,6.6-22.06,1.07-5.41-.55-9.6-1.13-12.64-.78-4.09-.64-7.25-.64-7.25,0-3.65,2.96-6.6,6.6-6.6Z"/><path id="Rectángulo_10-62" class="cls-1" d="m311.44,438.45h.08c3.53-.42,6.73,2.1,7.15,5.64,0,0,.63,2.5.53,7.24-.19,3.02-1.55,6.33.58,13.23.22,1.62,7.7,12.4,8.75,21.35,1.32,11.21-2.53,20.57-2.53,20.57l-13.04,1.53s-5.9-8.78-7.21-19.99c-1.03-8.8,2.75-15.04,3.98-22.68.43-5.5-1.67-9.47-2.59-12.42-1.25-3.97-1.49-7.12-1.49-7.12-.43-3.62,2.17-6.9,5.79-7.33Z"/><path id="Rectángulo_10-63" class="cls-1" d="m333,438.34h.08c3.54-.32,6.67,2.31,6.98,5.85,0,0,.56,2.52.31,7.25-.28,3.01-1.74,6.28.18,13.24.17,1.63,7.32,12.62,8.11,21.6.98,11.24-3.15,20.48-3.15,20.48l-13.08,1.14s-5.63-8.95-6.61-20.2c-.77-8.83,3.2-14.95,4.66-22.55.59-5.48-1.38-9.52-2.22-12.5-1.13-4.01-1.27-7.16-1.27-7.16-.32-3.63,2.37-6.83,6-7.15Z"/><path id="Rectángulo_10-64" class="cls-1" d="m355.54,438.37h.08c3.54-.35,6.69,2.24,7.03,5.78,0,0,.58,2.51.38,7.24-.25,3.01-1.68,6.3.31,13.24.18,1.63,7.45,12.55,8.31,21.52,1.09,11.23-2.95,20.51-2.95,20.51l-13.06,1.27s-5.72-8.9-6.8-20.13c-.85-8.82,3.05-14.98,4.45-22.6.54-5.49-1.47-9.51-2.34-12.47-1.17-3.99-1.34-7.15-1.34-7.15-.35-3.63,2.31-6.86,5.94-7.21Z"/><path id="Rectángulo_10-65" class="cls-1" d="m379.41,438.29h.08c3.53-.48,6.77,2,7.23,5.53,0,0,.67,2.49.63,7.23-.14,3.02-1.46,6.35.78,13.22.24,1.62,7.88,12.28,9.07,21.22,1.48,11.19-2.22,20.6-2.22,20.6l-13.01,1.72s-6.03-8.69-7.51-19.88c-1.16-8.79,2.52-15.08,3.65-22.74.35-5.5-1.81-9.45-2.78-12.38-1.31-3.95-1.59-7.1-1.59-7.1-.48-3.62,2.06-6.93,5.68-7.41Z"/><path id="Rectángulo_10-66" class="cls-1" d="m401.56,440.73h.08c3.52-.53,6.79,1.91,7.31,5.43,0,0,.7,2.48.73,7.22-.1,3.02-1.37,6.37.96,13.21.26,1.61,8.05,12.17,9.36,21.09,1.64,11.17-1.94,20.63-1.94,20.63l-12.99,1.9s-6.15-8.61-7.78-19.77c-1.29-8.77,2.31-15.11,3.33-22.79.27-5.51-1.94-9.42-2.95-12.35-1.36-3.93-1.69-7.08-1.69-7.08-.53-3.61,1.97-6.96,5.57-7.49Z"/><path id="Rectángulo_10-67" class="cls-1" d="m417.97,441.36l.08-.02c3.42-.98,6.99,1,7.97,4.42,0,0,1.03,2.37,1.69,7.06.3,3.01-.51,6.5,2.71,12.96.47,1.57,9.6,10.99,12.08,19.66,3.11,10.85.82,20.71.82,20.71l-12.62,3.62s-7.24-7.71-10.35-18.56c-2.44-8.52.28-15.29.27-23.03-.46-5.49-3.17-9.08-4.57-11.84-1.87-3.72-2.62-6.79-2.62-6.79-1-3.51,1.02-7.16,4.53-8.17Z"/><path id="Rectángulo_10-68" class="cls-1" d="m431.14,457.69l.06-.05c2.78-2.22,6.83-1.77,9.05,1.01,0,0,1.86,1.79,4.27,5.86,1.44,2.66,2.03,6.19,7.49,10.92,1.04,1.26,13.09,6.45,18.72,13.48,7.05,8.81,8.74,18.79,8.74,18.79l-10.25,8.2s-9.65-4.33-16.7-13.15c-5.54-6.92-5.63-14.22-8.62-21.36-2.54-4.89-6.43-7.16-8.78-9.17-3.16-2.71-5.03-5.26-5.03-5.26-2.28-2.85-1.82-7,1.03-9.28Z"/><path id="Rectángulo_10-69" class="cls-1" d="m331.75,369.32h.08c3.52-.53,6.79,1.91,7.31,5.43,0,0,.7,2.48.73,7.22-.1,3.02-1.37,6.37.95,13.21.26,1.61,8.05,12.18,9.35,21.09,1.63,11.17-1.95,20.63-1.95,20.63l-12.99,1.9s-6.14-8.61-7.77-19.78c-1.28-8.77,2.32-15.11,3.34-22.79.27-5.51-1.93-9.42-2.94-12.35-1.36-3.93-1.69-7.08-1.69-7.08-.53-3.61,1.97-6.96,5.58-7.49Z"/><path id="Rectángulo_10-70" class="cls-1" d="m347.61,369.35l.08-.02c3.45-.87,6.95,1.22,7.83,4.66,0,0,.95,2.4,1.47,7.1.21,3.02-.71,6.48,2.3,13.04.43,1.58,9.25,11.29,11.46,20.02,2.77,10.94.18,20.72.18,20.72l-12.72,3.22s-6.99-7.94-9.76-18.88c-2.18-8.59.76-15.27.99-23.01-.29-5.5-2.89-9.18-4.2-11.98-1.76-3.77-2.4-6.87-2.4-6.87-.89-3.54,1.25-7.13,4.78-8.02Z"/><path id="Rectángulo_10-71" class="cls-1" d="m374.74,369.05h.08c3.5-.64,6.85,1.7,7.47,5.2,0,0,.78,2.46.95,7.19,0,3.03-1.18,6.41,1.36,13.17.31,1.61,8.41,11.93,9.99,20.8,1.97,11.11-1.32,20.68-1.32,20.68l-12.92,2.29s-6.4-8.42-8.37-19.53c-1.55-8.73,1.86-15.18,2.65-22.88.1-5.51-2.22-9.36-3.32-12.25-1.48-3.89-1.9-7.02-1.9-7.02-.64-3.59,1.76-7.02,5.35-7.66Z"/><path id="Rectángulo_10-72" class="cls-1" d="m401.37,369.32h.08c3.52-.53,6.79,1.91,7.31,5.43,0,0,.7,2.48.73,7.22-.1,3.02-1.37,6.37.95,13.21.26,1.61,8.05,12.18,9.35,21.09,1.63,11.17-1.95,20.63-1.95,20.63l-12.99,1.9s-6.14-8.61-7.77-19.78c-1.28-8.77,2.32-15.11,3.34-22.79.27-5.51-1.93-9.42-2.94-12.35-1.36-3.93-1.69-7.08-1.69-7.08-.53-3.61,1.97-6.96,5.58-7.49Z"/><path id="Rectángulo_10-73" class="cls-1" d="m422.14,394.41l.07-.04c3.2-1.55,7.05-.22,8.61,2.98,0,0,1.42,2.16,2.87,6.66.82,2.91.61,6.49,4.89,12.3.74,1.46,11.35,9.18,15.28,17.29,4.93,10.15,4.37,20.26,4.37,20.26l-11.81,5.73s-8.45-6.36-13.38-16.51c-3.87-7.98-2.35-15.11-3.69-22.73-1.4-5.33-4.68-8.4-6.53-10.88-2.48-3.34-3.74-6.24-3.74-6.24-1.59-3.28-.22-7.23,3.06-8.82Z"/><path id="Rectángulo_10-74" class="cls-1" d="m461.02,456.61l.07-.05c2.89-2.07,6.92-1.4,8.99,1.49,0,0,1.76,1.89,3.96,6.08,1.3,2.73,1.7,6.29,6.9,11.3.97,1.32,12.73,7.14,17.98,14.46,6.57,9.18,7.72,19.23,7.72,19.23l-10.67,7.64s-9.4-4.84-15.97-14.02c-5.16-7.21-4.86-14.5-7.47-21.78-2.28-5.02-6.04-7.49-8.28-9.62-3.01-2.87-4.74-5.52-4.74-5.52-2.12-2.97-1.44-7.09,1.53-9.21Z"/><path id="Rectángulo_10-75" class="cls-1" d="m413.83,507.59h.08c3.52-.53,6.79,1.91,7.31,5.43,0,0,.7,2.48.73,7.22-.1,3.02-1.37,6.37.95,13.21.26,1.61,8.05,12.18,9.35,21.09,1.63,11.17-1.95,20.63-1.95,20.63l-12.99,1.9s-6.14-8.61-7.77-19.78c-1.28-8.77,2.32-15.11,3.34-22.79.27-5.51-1.93-9.42-2.94-12.35-1.36-3.93-1.69-7.08-1.69-7.08-.53-3.61,1.97-6.96,5.58-7.49Z"/><path id="Rectángulo_10-76" class="cls-1" d="m433.73,509.95l.08-.02c3.46-.83,6.94,1.31,7.76,4.77,0,0,.92,2.41,1.37,7.12.17,3.02-.8,6.47,2.13,13.07.4,1.59,9.1,11.41,11.19,20.18,2.62,10.98-.1,20.72-.1,20.72l-12.77,3.05s-6.88-8.03-9.5-19.01c-2.06-8.62.97-15.26,1.3-22.99-.22-5.51-2.76-9.21-4.03-12.04-1.71-3.8-2.31-6.9-2.31-6.9-.85-3.55,1.34-7.11,4.89-7.96Z"/><path id="Rectángulo_10-77" class="cls-1" d="m451.72,510.02l.08-.02c3.45-.87,6.95,1.23,7.82,4.68,0,0,.95,2.4,1.45,7.11.2,3.02-.72,6.48,2.28,13.04.42,1.58,9.23,11.3,11.43,20.05,2.75,10.95.14,20.72.14,20.72l-12.73,3.2s-6.98-7.95-9.73-18.89c-2.16-8.6.79-15.27,1.03-23.01-.28-5.5-2.87-9.18-4.17-11.99-1.75-3.78-2.39-6.87-2.39-6.87-.89-3.54,1.26-7.12,4.8-8.01Z"/><path id="Rectángulo_10-78" class="cls-1" d="m464.16,518l.07-.05c2.9-2.06,6.92-1.38,8.98,1.52,0,0,1.75,1.89,3.93,6.1,1.28,2.74,1.68,6.3,6.86,11.33.97,1.32,12.71,7.18,17.92,14.53,6.53,9.2,7.65,19.26,7.65,19.26l-10.7,7.6s-9.39-4.87-15.92-14.08c-5.13-7.23-4.81-14.51-7.39-21.81-2.26-5.03-6.01-7.51-8.24-9.66-3-2.88-4.72-5.54-4.72-5.54-2.11-2.97-1.41-7.1,1.56-9.21Z"/><path id="Rectángulo_10-79" class="cls-1" d="m492.3,517.39l.07-.04c2.97-1.96,6.96-1.15,8.93,1.82,0,0,1.69,1.95,3.73,6.22,1.19,2.78,1.47,6.35,6.48,11.55.92,1.35,12.46,7.6,17.44,15.11,6.23,9.41,7.02,19.5,7.02,19.5l-10.95,7.24s-9.22-5.18-15.45-14.59c-4.89-7.39-4.33-14.66-6.67-22.04-2.1-5.1-5.76-7.71-7.92-9.92-2.91-2.98-4.54-5.69-4.54-5.69-2.01-3.04-1.18-7.14,1.86-9.15Z"/><path id="Rectángulo_10-80" class="cls-1" d="m515.49,514.58l.07-.05c2.92-2.03,6.94-1.31,8.97,1.61,0,0,1.74,1.91,3.87,6.14,1.26,2.75,1.61,6.31,6.74,11.4.95,1.33,12.63,7.31,17.78,14.71,6.44,9.27,7.46,19.33,7.46,19.33l-10.78,7.49s-9.34-4.97-15.78-14.24c-5.06-7.28-4.66-14.56-7.17-21.89-2.21-5.05-5.93-7.57-8.14-9.74-2.97-2.91-4.66-5.58-4.66-5.58-2.08-2.99-1.34-7.11,1.65-9.19Z"/><path id="Rectángulo_10-81" class="cls-1" d="m401.37,297.71h.08c3.52-.53,6.79,1.91,7.31,5.43,0,0,.7,2.48.73,7.22-.1,3.02-1.37,6.37.95,13.21.26,1.61,8.05,12.18,9.35,21.09,1.63,11.17-1.95,20.63-1.95,20.63l-12.99,1.9s-6.14-8.61-7.77-19.78c-1.28-8.77,2.32-15.11,3.34-22.79.27-5.51-1.93-9.42-2.94-12.35-1.36-3.93-1.69-7.08-1.69-7.08-.53-3.61,1.97-6.96,5.58-7.49Z"/><path id="Rectángulo_10-82" class="cls-1" d="m340.49,88.01h.08c3.52-.53,6.79,1.91,7.31,5.43,0,0,.7,2.48.73,7.22-.1,3.02-1.37,6.37.95,13.21.26,1.61,8.05,12.18,9.35,21.09,1.63,11.17-1.95,20.63-1.95,20.63l-12.99,1.9s-6.14-8.61-7.77-19.78c-1.28-8.77,2.32-15.11,3.34-22.79.27-5.51-1.93-9.42-2.94-12.35-1.36-3.93-1.69-7.08-1.69-7.08-.53-3.61,1.97-6.96,5.58-7.49Z"/><path id="Rectángulo_10-83" class="cls-1" d="m360.47,88.77l.08-.02c3.44-.9,6.96,1.16,7.86,4.6,0,0,.97,2.39,1.52,7.09.23,3.02-.66,6.48,2.4,13.02.44,1.58,9.34,11.22,11.62,19.94,2.85,10.92.34,20.72.34,20.72l-12.7,3.32s-7.05-7.88-9.91-18.8c-2.24-8.58.64-15.28.81-23.02-.34-5.5-2.96-9.15-4.29-11.95-1.79-3.76-2.46-6.85-2.46-6.85-.92-3.53,1.19-7.14,4.72-8.06Z"/><path id="Rectángulo_10-84" class="cls-1" d="m384.87,88.75l.08-.02c3.47-.77,6.91,1.42,7.69,4.89,0,0,.88,2.43,1.26,7.14.12,3.02-.9,6.45,1.92,13.1.38,1.59,8.92,11.55,10.87,20.35,2.45,11.02-.43,20.72-.43,20.72l-12.81,2.85s-6.76-8.14-9.2-19.16c-1.92-8.65,1.21-15.24,1.66-22.97-.13-5.51-2.62-9.26-3.84-12.1-1.65-3.82-2.2-6.94-2.2-6.94-.79-3.56,1.45-7.09,5.01-7.88Z"/><path id="Rectángulo_10-85" class="cls-1" d="m411.57,97.24l.08-.02c3.48-.75,6.9,1.47,7.65,4.95,0,0,.86,2.43,1.21,7.15.1,3.02-.95,6.45,1.83,13.11.37,1.59,8.84,11.62,10.73,20.43,2.37,11.03-.58,20.71-.58,20.71l-12.83,2.76s-6.7-8.18-9.07-19.22c-1.86-8.67,1.31-15.23,1.82-22.96-.09-5.51-2.55-9.27-3.76-12.12-1.62-3.83-2.15-6.95-2.15-6.95-.77-3.57,1.5-7.08,5.07-7.84Z"/><path id="Rectángulo_10-86" class="cls-1" d="m427.38,70.71h.08c3.52-.53,6.79,1.91,7.31,5.43,0,0,.7,2.48.73,7.22-.1,3.02-1.37,6.37.95,13.21.26,1.61,8.05,12.18,9.35,21.09,1.63,11.17-1.95,20.63-1.95,20.63l-12.99,1.9s-6.14-8.61-7.77-19.78c-1.28-8.77,2.32-15.11,3.34-22.79.27-5.51-1.93-9.42-2.94-12.35-1.36-3.93-1.69-7.08-1.69-7.08-.53-3.61,1.97-6.96,5.58-7.49Z"/><path id="Rectángulo_10-87" class="cls-1" d="m384.93,28.1l.07-.03c3.26-1.42,7.06.08,8.48,3.34,0,0,1.33,2.21,2.59,6.78.69,2.94.34,6.51,4.37,12.5.67,1.49,10.95,9.65,14.54,17.92,4.5,10.35,3.51,20.42,3.51,20.42l-12.04,5.23s-8.18-6.7-12.68-17.06c-3.53-8.13-1.71-15.19-2.73-22.87-1.18-5.39-4.33-8.59-6.07-11.15-2.34-3.44-3.48-6.39-3.48-6.39-1.45-3.34.08-7.23,3.43-8.69Z"/><path id="Rectángulo_10-88" class="cls-1" d="m414.21,15.79l.07-.04c3.08-1.78,7.02-.72,8.8,2.36,0,0,1.57,2.05,3.34,6.44,1.02,2.85,1.07,6.43,5.76,11.92.84,1.4,11.97,8.35,16.47,16.16,5.64,9.78,5.8,19.89,5.8,19.89l-11.37,6.55s-8.88-5.74-14.52-15.52c-4.43-7.68-3.41-14.9-5.3-22.41-1.78-5.22-5.27-8.05-7.29-10.39-2.72-3.15-4.18-5.96-4.18-5.96-1.82-3.16-.74-7.2,2.42-9.02Z"/><path id="Rectángulo_10-89" class="cls-1" d="m474.04,45.56l.08.03c3.35,1.19,5.1,4.88,3.91,8.23,0,0-.54,2.52-2.73,6.72-1.5,2.62-4.19,4.99-5.34,12.12-.52,1.55,1.41,14.53-1.61,23.02-3.78,10.63-11.37,17.32-11.37,17.32l-12.37-4.4s-1.4-10.48,2.38-21.12c2.97-8.35,9.12-12.27,13.62-18.58,2.82-4.74,2.7-9.23,3.17-12.29.64-4.11,1.82-7.04,1.82-7.04,1.22-3.44,5-5.23,8.43-4.01Z"/><path id="Rectángulo_10-90" class="cls-1" d="m498.27,1.99l.06.06c2.49,2.54,2.44,6.62-.1,9.11,0,0-1.6,2.03-5.41,4.84-2.5,1.7-5.96,2.64-10.12,8.54-1.15,1.16-5.11,13.67-11.56,19.97-8.07,7.89-17.83,10.56-17.83,10.56l-9.18-9.39s3.35-10.03,11.42-17.92c6.34-6.2,13.59-7.01,20.39-10.7,4.61-3.02,6.48-7.11,8.25-9.64,2.38-3.41,4.73-5.53,4.73-5.53,2.61-2.55,6.79-2.5,9.34.11Z"/></svg>