C<?xml version="1.0" encoding="UTF-8"?>
<svg id="Capa_1" data-name="Capa 1" xmlns="http://www.w3.org/2000/svg" viewBox="0 0 580.45 556.95">
  <defs>
    <style>
      .cls-1 {
        fill: #1d1d1b;
        fill-rule: evenodd;
      }
    </style>
  </defs>
  <path id="Rectángulo_10" data-name="Rectángulo 10" class="cls-1" d="m221.25,0h.13c5.56,0,10.06,4.5,10.06,10.06,0,0,.52,4-.5,11.32-.84,4.65-3.56,9.53-1.51,20.62.04,2.55,9.68,20.64,9.68,34.71,0,17.63-7.67,31.44-7.67,31.44h-20.5s-7.55-14.69-7.55-32.32c0-13.85,7-22.83,10.31-34.46,1.67-8.45-.86-15-1.76-19.74-1.22-6.38-1.01-11.32-1.01-11.32,0-5.7,4.62-10.31,10.31-10.31Z"/>
  <path id="Rectángulo_10-2" data-name="Rectángulo 10" class="cls-1" d="m261.43,0h.13C267.12,0,271.62,4.5,271.62,10.06c0,0,.52,4-.5,11.32-.84,4.65-3.56,9.53-1.51,20.62.04,2.55,9.68,20.64,9.68,34.71,0,17.63-7.67,31.44-7.67,31.44h-20.5s-7.55-14.69-7.55-32.32c0-13.85,7-22.83,10.31-34.46,1.67-8.45-.86-15-1.76-19.74-1.22-6.38-1.01-11.32-1.01-11.32C251.12,4.62,255.74,0,261.43,0Z"/>
  <path id="Rectángulo_10-3" data-name="Rectángulo 10" class="cls-1" d="m297.15,0h.13C302.83,0,307.34,4.5,307.34,10.06c0,0,.52,4-.5,11.32-.84,4.65-3.56,9.53-1.51,20.62.04,2.55,9.68,20.64,9.68,34.71,0,17.63-7.67,31.44-7.67,31.44h-20.5s-7.55-14.69-7.55-32.32c0-13.85,7-22.83,10.31-34.46,1.67-8.45-.86-15-1.76-19.74-1.22-6.38-1.01-11.32-1.01-11.32C286.84,4.62,291.45,0,297.15,0Z"/>
  <path id="Rectángulo_10-4" data-name="Rectángulo 10" class="cls-1" d="m369.43,113.35h.13c5.56,0,10.06,4.5,10.06,10.06,0,0,.52,4-.5,11.32-.84,4.65-3.56,9.53-1.51,20.62.04,2.55,9.68,20.64,9.68,34.71,0,17.63-7.67,31.44-7.67,31.44h-20.5s-7.55-14.69-7.55-32.32c0-13.85,7-22.83,10.31-34.46,1.67-8.45-.86-15-1.76-19.74-1.22-6.38-1.01-11.32-1.01-11.32,0-5.7,4.62-10.31,10.31-10.31Z"/>
  <path id="Rectángulo_10-5" data-name="Rectángulo 10" class="cls-1" d="m333.72,113.35h.13c5.56,0,10.06,4.5,10.06,10.06,0,0,.52,4-.5,11.32-.84,4.65-3.56,9.53-1.51,20.62.04,2.55,9.68,20.64,9.68,34.71,0,17.63-7.67,31.44-7.67,31.44h-20.5s-7.55-14.69-7.55-32.32c0-13.85,7-22.83,10.31-34.46,1.67-8.45-.86-15-1.76-19.74-1.22-6.38-1.01-11.32-1.01-11.32,0-5.7,4.62-10.31,10.31-10.31Z"/>
  <path id="Rectángulo_10-6" data-name="Rectángulo 10" class="cls-1" d="m297.15,113.35h.13c5.56,0,10.06,4.5,10.06,10.06,0,0,.52,4-.5,11.32-.84,4.65-3.56,9.53-1.51,20.62.04,2.55,9.68,20.64,9.68,34.71,0,17.63-7.67,31.44-7.67,31.44h-20.5s-7.55-14.69-7.55-32.32c0-13.85,7-22.83,10.31-34.46,1.67-8.45-.86-15-1.76-19.74-1.22-6.38-1.01-11.32-1.01-11.32,0-5.7,4.62-10.31,10.31-10.31Z"/>
  <path id="Rectángulo_10-7" data-name="Rectángulo 10" class="cls-1" d="m267.35,113.13h.13c5.54.44,9.68,5.28,9.26,10.82,0,0,.21,4.02-1.37,11.25-1.2,4.57-4.29,9.23-3.09,20.45-.16,2.55,8.07,21.32,6.98,35.35-1.36,17.57-10.07,30.76-10.07,30.76l-20.44-1.58s-6.39-15.23-5.03-32.81c1.07-13.8,8.74-22.22,12.94-33.56,2.31-8.29.3-15.02-.23-19.82-.72-6.46-.13-11.36-.13-11.36.44-5.68,5.4-9.93,11.08-9.49Z"/>
  <path id="Rectángulo_10-8" data-name="Rectángulo 10" class="cls-1" d="m221.33,113.13h.13c5.54-.46,10.39,3.66,10.84,9.2,0,0,.85,3.94.42,11.32-.46,4.7-2.78,9.79.17,20.68.25,2.54,11.33,19.78,12.47,33.81,1.43,17.57-5.09,31.96-5.09,31.96l-20.43,1.66s-8.71-14.03-10.15-31.6c-1.12-13.8,5.12-23.32,7.48-35.18.97-8.55-2.07-14.88-3.36-19.54-1.73-6.26-1.92-11.2-1.92-11.2-.46-5.68,3.76-10.65,9.44-11.12Z"/>
  <path id="Rectángulo_10-9" data-name="Rectángulo 10" class="cls-1" d="m426.43,226.35h.13c5.56,0,10.06,4.5,10.06,10.06,0,0,.52,4-.5,11.32-.84,4.65-3.56,9.53-1.51,20.62.04,2.55,9.68,20.64,9.68,34.71,0,17.63-7.67,31.44-7.67,31.44h-20.5s-7.55-14.69-7.55-32.32c0-13.85,7-22.83,10.31-34.46,1.67-8.45-.86-15-1.76-19.74-1.22-6.38-1.01-11.32-1.01-11.32,0-5.7,4.62-10.31,10.31-10.31Z"/>
  <path id="Rectángulo_10-10" data-name="Rectángulo 10" class="cls-1" d="m387.29,226.35h.13c5.56,0,10.06,4.5,10.06,10.06,0,0,.52,4-.5,11.32-.84,4.65-3.56,9.53-1.51,20.62.04,2.55,9.68,20.64,9.68,34.71,0,17.63-7.67,31.44-7.67,31.44h-20.5s-7.55-14.69-7.55-32.32c0-13.85,7-22.83,10.31-34.46,1.67-8.45-.86-15-1.76-19.74-1.22-6.38-1.01-11.32-1.01-11.32,0-5.7,4.62-10.31,10.31-10.31Z"/>
  <path id="Rectángulo_10-11" data-name="Rectángulo 10" class="cls-1" d="m351.57,226.35h.13c5.56,0,10.06,4.5,10.06,10.06,0,0,.52,4-.5,11.32-.84,4.65-3.56,9.53-1.51,20.62.04,2.55,9.68,20.64,9.68,34.71,0,17.63-7.67,31.44-7.67,31.44h-20.5s-7.55-14.69-7.55-32.32c0-13.85,7-22.83,10.31-34.46,1.67-8.45-.86-15-1.76-19.74-1.22-6.38-1.01-11.32-1.01-11.32,0-5.7,4.62-10.31,10.31-10.31Z"/>
  <path id="Rectángulo_10-12" data-name="Rectángulo 10" class="cls-1" d="m315.01,226.35h.13c5.56,0,10.06,4.5,10.06,10.06,0,0,.52,4-.5,11.32-.84,4.65-3.56,9.53-1.51,20.62.04,2.55,9.68,20.64,9.68,34.71,0,17.63-7.67,31.44-7.67,31.44h-20.5s-7.55-14.69-7.55-32.32c0-13.85,7-22.83,10.31-34.46,1.67-8.45-.86-15-1.76-19.74-1.22-6.38-1.01-11.32-1.01-11.32,0-5.7,4.62-10.31,10.31-10.31Z"/>
  <path id="Rectángulo_10-13" data-name="Rectángulo 10" class="cls-1" d="m499.43,334.5h.13c5.56,0,10.06,4.5,10.06,10.06,0,0,.52,4-.5,11.32-.84,4.65-3.56,9.53-1.51,20.62.04,2.55,9.68,20.64,9.68,34.71,0,17.63-7.67,31.44-7.67,31.44h-20.5s-7.55-14.69-7.55-32.32c0-13.85,7-22.83,10.31-34.46,1.67-8.45-.86-15-1.76-19.74-1.22-6.38-1.01-11.32-1.01-11.32,0-5.7,4.62-10.31,10.31-10.31Z"/>
  <path id="Rectángulo_10-14" data-name="Rectángulo 10" class="cls-1" d="m462.15,334.5h.13c5.56,0,10.06,4.5,10.06,10.06,0,0,.52,4-.5,11.32-.84,4.65-3.56,9.53-1.51,20.62.04,2.55,9.68,20.64,9.68,34.71,0,17.63-7.67,31.44-7.67,31.44h-20.5s-7.55-14.69-7.55-32.32c0-13.85,7-22.83,10.31-34.46,1.67-8.45-.86-15-1.76-19.74-1.22-6.38-1.01-11.32-1.01-11.32,0-5.7,4.62-10.31,10.31-10.31Z"/>
  <path id="Rectángulo_10-15" data-name="Rectángulo 10" class="cls-1" d="m423.01,339.42h.13c5.56,0,10.06,4.5,10.06,10.06,0,0,.52,4-.5,11.32-.84,4.65-3.56,9.53-1.51,20.62.04,2.55,9.68,20.64,9.68,34.71,0,17.63-7.67,31.44-7.67,31.44h-20.5s-7.55-14.69-7.55-32.32c0-13.85,7-22.83,10.31-34.46,1.67-8.45-.86-15-1.76-19.74-1.22-6.38-1.01-11.32-1.01-11.32,0-5.7,4.62-10.31,10.31-10.31Z"/>
  <path id="Rectángulo_10-16" data-name="Rectángulo 10" class="cls-1" d="m387.29,334.5h.13c5.56,0,10.06,4.5,10.06,10.06,0,0,.52,4-.5,11.32-.84,4.65-3.56,9.53-1.51,20.62.04,2.55,9.68,20.64,9.68,34.71,0,17.63-7.67,31.44-7.67,31.44h-20.5s-7.55-14.69-7.55-32.32c0-13.85,7-22.83,10.31-34.46,1.67-8.45-.86-15-1.76-19.74-1.22-6.38-1.01-11.32-1.01-11.32,0-5.7,4.62-10.31,10.31-10.31Z"/>
  <path id="Rectángulo_10-17" data-name="Rectángulo 10" class="cls-1" d="m351.57,334.5h.13c5.56,0,10.06,4.5,10.06,10.06,0,0,.52,4-.5,11.32-.84,4.65-3.56,9.53-1.51,20.62.04,2.55,9.68,20.64,9.68,34.71,0,17.63-7.67,31.44-7.67,31.44h-20.5s-7.55-14.69-7.55-32.32c0-13.85,7-22.83,10.31-34.46,1.67-8.45-.86-15-1.76-19.74-1.22-6.38-1.01-11.32-1.01-11.32,0-5.7,4.62-10.31,10.31-10.31Z"/>
  <path id="Rectángulo_10-18" data-name="Rectángulo 10" class="cls-1" d="m315.01,334.5h.13c5.56,0,10.06,4.5,10.06,10.06,0,0,.52,4-.5,11.32-.84,4.65-3.56,9.53-1.51,20.62.04,2.55,9.68,20.64,9.68,34.71,0,17.63-7.67,31.44-7.67,31.44h-20.5s-7.55-14.69-7.55-32.32c0-13.85,7-22.83,10.31-34.46,1.67-8.45-.86-15-1.76-19.74-1.22-6.38-1.01-11.32-1.01-11.32,0-5.7,4.62-10.31,10.31-10.31Z"/>
  <path id="Rectángulo_10-19" data-name="Rectángulo 10" class="cls-1" d="m271.57,334.5h.13c5.56,0,10.06,4.5,10.06,10.06,0,0,.52,4-.5,11.32-.84,4.65-3.56,9.53-1.51,20.62.04,2.55,9.68,20.64,9.68,34.71,0,17.63-7.67,31.44-7.67,31.44h-20.5s-7.55-14.69-7.55-32.32c0-13.85,7-22.83,10.31-34.46,1.67-8.45-.86-15-1.76-19.74-1.22-6.38-1.01-11.32-1.01-11.32,0-5.7,4.62-10.31,10.31-10.31Z"/>
  <path id="Rectángulo_10-20" data-name="Rectángulo 10" class="cls-1" d="m235.79,334.5h.13c5.56,0,10.06,4.5,10.06,10.06,0,0,.52,4-.5,11.32-.84,4.65-3.56,9.53-1.51,20.62.04,2.55,9.68,20.64,9.68,34.71,0,17.63-7.67,31.44-7.67,31.44h-20.5s-7.55-14.69-7.55-32.32c0-13.85,7-22.83,10.31-34.46,1.67-8.45-.86-15-1.76-19.74-1.22-6.38-1.01-11.32-1.01-11.32,0-5.7,4.62-10.31,10.31-10.31Z"/>
  <path id="Rectángulo_10-21" data-name="Rectángulo 10" class="cls-1" d="m562.59,447.58h.13c5.56,0,10.06,4.5,10.06,10.06,0,0,.52,4-.5,11.32-.84,4.65-3.56,9.53-1.51,20.62.04,2.55,9.68,20.64,9.68,34.71,0,17.63-7.67,31.44-7.67,31.44h-20.5s-7.55-14.69-7.55-32.32c0-13.85,7-22.83,10.31-34.46,1.67-8.45-.86-15-1.76-19.74-1.22-6.38-1.01-11.32-1.01-11.32,0-5.7,4.62-10.31,10.31-10.31Z"/>
  <path id="Rectángulo_10-22" data-name="Rectángulo 10" class="cls-1" d="m522.83,447.58h.13c5.56,0,10.06,4.5,10.06,10.06,0,0,.52,4-.5,11.32-.84,4.65-3.56,9.53-1.51,20.62.04,2.55,9.68,20.64,9.68,34.71,0,17.63-7.67,31.44-7.67,31.44h-20.5s-7.55-14.69-7.55-32.32c0-13.85,7-22.83,10.31-34.46,1.67-8.45-.86-15-1.76-19.74-1.22-6.38-1.01-11.32-1.01-11.32,0-5.7,4.62-10.31,10.31-10.31Z"/>
  <path id="Rectángulo_10-23" data-name="Rectángulo 10" class="cls-1" d="m487.11,447.58h.13c5.56,0,10.06,4.5,10.06,10.06,0,0,.52,4-.5,11.32-.84,4.65-3.56,9.53-1.51,20.62.04,2.55,9.68,20.64,9.68,34.71,0,17.63-7.67,31.44-7.67,31.44h-20.5s-7.55-14.69-7.55-32.32c0-13.85,7-22.83,10.31-34.46,1.67-8.45-.86-15-1.76-19.74-1.22-6.38-1.01-11.32-1.01-11.32,0-5.7,4.62-10.31,10.31-10.31Z"/>
  <path id="Rectángulo_10-24" data-name="Rectángulo 10" class="cls-1" d="m451.39,447.58h.13c5.56,0,10.06,4.5,10.06,10.06,0,0,.52,4-.5,11.32-.84,4.65-3.56,9.53-1.51,20.62.04,2.55,9.68,20.64,9.68,34.71,0,17.63-7.67,31.44-7.67,31.44h-20.5s-7.55-14.69-7.55-32.32c0-13.85,7-22.83,10.31-34.46,1.67-8.45-.86-15-1.76-19.74-1.22-6.38-1.01-11.32-1.01-11.32,0-5.7,4.62-10.31,10.31-10.31Z"/>
  <path id="Rectángulo_10-25" data-name="Rectángulo 10" class="cls-1" d="m408.57,447.58h.13c5.56,0,10.06,4.5,10.06,10.06,0,0,.52,4-.5,11.32-.84,4.65-3.56,9.53-1.51,20.62.04,2.55,9.68,20.64,9.68,34.71,0,17.63-7.67,31.44-7.67,31.44h-20.5s-7.55-14.69-7.55-32.32c0-13.85,7-22.83,10.31-34.46,1.67-8.45-.86-15-1.76-19.74-1.22-6.38-1.01-11.32-1.01-11.32,0-5.7,4.62-10.31,10.31-10.31Z"/>
  <path id="Rectángulo_10-26" data-name="Rectángulo 10" class="cls-1" d="m369.43,447.58h.13c5.56,0,10.06,4.5,10.06,10.06,0,0,.52,4-.5,11.32-.84,4.65-3.56,9.53-1.51,20.62.04,2.55,9.68,20.64,9.68,34.71,0,17.63-7.67,31.44-7.67,31.44h-20.5s-7.55-14.69-7.55-32.32c0-13.85,7-22.83,10.31-34.46,1.67-8.45-.86-15-1.76-19.74-1.22-6.38-1.01-11.32-1.01-11.32,0-5.7,4.62-10.31,10.31-10.31Z"/>
  <path id="Rectángulo_10-27" data-name="Rectángulo 10" class="cls-1" d="m333.72,447.58h.13c5.56,0,10.06,4.5,10.06,10.06,0,0,.52,4-.5,11.32-.84,4.65-3.56,9.53-1.51,20.62.04,2.55,9.68,20.64,9.68,34.71,0,17.63-7.67,31.44-7.67,31.44h-20.5s-7.55-14.69-7.55-32.32c0-13.85,7-22.83,10.31-34.46,1.67-8.45-.86-15-1.76-19.74-1.22-6.38-1.01-11.32-1.01-11.32,0-5.7,4.62-10.31,10.31-10.31Z"/>
  <path id="Rectángulo_10-28" data-name="Rectángulo 10" class="cls-1" d="m297.15,447.58h.13c5.56,0,10.06,4.5,10.06,10.06,0,0,.52,4-.5,11.32-.84,4.65-3.56,9.53-1.51,20.62.04,2.55,9.68,20.64,9.68,34.71,0,17.63-7.67,31.44-7.67,31.44h-20.5s-7.55-14.69-7.55-32.32c0-13.85,7-22.83,10.31-34.46,1.67-8.45-.86-15-1.76-19.74-1.22-6.38-1.01-11.32-1.01-11.32,0-5.7,4.62-10.31,10.31-10.31Z"/>
  <path id="Rectángulo_10-29" data-name="Rectángulo 10" class="cls-1" d="m261.43,447.58h.13c5.56,0,10.06,4.5,10.06,10.06,0,0,.52,4-.5,11.32-.84,4.65-3.56,9.53-1.51,20.62.04,2.55,9.68,20.64,9.68,34.71,0,17.63-7.67,31.44-7.67,31.44h-20.5s-7.55-14.69-7.55-32.32c0-13.85,7-22.83,10.31-34.46,1.67-8.45-.86-15-1.76-19.74-1.22-6.38-1.01-11.32-1.01-11.32,0-5.7,4.62-10.31,10.31-10.31Z"/>
  <path id="Rectángulo_10-30" data-name="Rectángulo 10" class="cls-1" d="m221.25,447.58h.13c5.56,0,10.06,4.5,10.06,10.06,0,0,.52,4-.5,11.32-.84,4.65-3.56,9.53-1.51,20.62.04,2.55,9.68,20.64,9.68,34.71,0,17.63-7.67,31.44-7.67,31.44h-20.5s-7.55-14.69-7.55-32.32c0-13.85,7-22.83,10.31-34.46,1.67-8.45-.86-15-1.76-19.74-1.22-6.38-1.01-11.32-1.01-11.32,0-5.7,4.62-10.31,10.31-10.31Z"/>
  <path id="Rectángulo_10-31" data-name="Rectángulo 10" class="cls-1" d="m186.99,447.6h.13c5.55.15,9.94,4.78,9.79,10.33,0,0,.42,4.01-.81,11.3-.97,4.62-3.82,9.43-2.07,20.58-.03,2.55,9.12,20.89,8.74,34.96-.48,17.62-8.52,31.22-8.52,31.22l-20.49-.55s-7.15-14.89-6.67-32.51c.37-13.84,7.61-22.63,11.24-34.17,1.89-8.4-.45-15.02-1.23-19.78-1.04-6.42-.7-11.34-.7-11.34.15-5.69,4.89-10.18,10.59-10.03Z"/>
  <path id="Rectángulo_10-32" data-name="Rectángulo 10" class="cls-1" d="m154.67,447.86h.13c5.53.57,9.55,5.51,8.99,11.04,0,0,.12,4.03-1.64,11.21-1.31,4.54-4.51,9.13-3.59,20.37-.22,2.55,7.55,21.51,6.13,35.51-1.78,17.54-10.81,30.5-10.81,30.5l-20.39-2.07s-6.02-15.38-4.24-32.92c1.4-13.77,9.27-22,13.74-33.24,2.51-8.23.66-15.01.24-19.82-.56-6.47.14-11.36.14-11.36.58-5.67,5.64-9.79,11.3-9.22Z"/>
  <path id="Rectángulo_10-33" data-name="Rectángulo 10" class="cls-1" d="m262.52,223.86h.12c5.52-.67,10.52,3.27,11.18,8.79,0,0,.99,3.91.83,11.3-.29,4.72-2.41,9.89.93,20.66.34,2.53,12.05,19.35,13.7,33.33,2.07,17.5-3.92,32.12-3.92,32.12l-20.36,2.41s-9.22-13.7-11.3-31.21c-1.63-13.75,4.27-23.49,6.18-35.43.66-8.58-2.62-14.79-4.07-19.4-1.96-6.2-2.33-11.12-2.33-11.12-.67-5.66,3.37-10.78,9.03-11.45Z"/>
  <path id="Rectángulo_10-34" data-name="Rectángulo 10" class="cls-1" d="m235.93,227.87l.12.03c5.4,1.31,8.71,6.75,7.4,12.15,0,0-.43,4.01-3.16,10.88-1.91,4.32-5.71,8.42-6.33,19.69-.57,2.49,4.54,22.34,1.22,36.02-4.16,17.13-14.88,28.74-14.88,28.74l-19.92-4.84s-3.86-16.06.3-33.19c3.27-13.45,12.19-20.53,18.15-31.05,3.61-7.81,2.71-14.78,2.95-19.6.33-6.49,1.69-11.24,1.69-11.24,1.34-5.53,6.92-8.93,12.46-7.59Z"/>
  <path id="Rectángulo_10-35" data-name="Rectángulo 10" class="cls-1" d="m188.67,222.09h.13c5.53.58,9.55,5.52,8.98,11.05,0,0,.11,4.03-1.66,11.21-1.31,4.54-4.52,9.12-3.61,20.36-.22,2.55,7.52,21.52,6.08,35.52-1.81,17.53-10.85,30.49-10.85,30.49l-20.39-2.1s-6-15.39-4.19-32.92c1.42-13.77,9.3-21.99,13.79-33.22,2.52-8.23.68-15.01.27-19.82-.56-6.48.16-11.36.16-11.36.58-5.67,5.65-9.79,11.31-9.2Z"/>
  <path id="Rectángulo_10-36" data-name="Rectángulo 10" class="cls-1" d="m168.46,111.97l.12-.02c5.46-1.04,10.73,2.54,11.76,8,0,0,1.26,3.83,1.62,11.21.04,4.72-1.72,10.03,2.37,20.54.52,2.5,13.37,18.46,16,32.29,3.29,17.31-1.66,32.32-1.66,32.32l-20.14,3.83s-10.16-13.02-13.45-30.34c-2.59-13.6,2.61-23.73,3.69-35.78.06-8.61-3.64-14.57-5.42-19.07-2.39-6.04-3.1-10.93-3.1-10.93-1.06-5.6,2.61-10.99,8.2-12.06Z"/>
  <path id="Rectángulo_10-37" data-name="Rectángulo 10" class="cls-1" d="m171.84,5.3h.12c5.52-.66,10.52,3.29,11.16,8.81,0,0,.98,3.91.81,11.3-.29,4.72-2.43,9.88.9,20.66.34,2.53,12.01,19.37,13.65,33.35,2.05,17.51-3.97,32.12-3.97,32.12l-20.36,2.38s-9.2-13.72-11.25-31.23c-1.61-13.75,4.3-23.49,6.24-35.42.67-8.58-2.59-14.8-4.04-19.41-1.95-6.2-2.31-11.13-2.31-11.13-.66-5.66,3.39-10.78,9.05-11.44Z"/>
  <path id="Rectángulo_10-38" data-name="Rectángulo 10" class="cls-1" d="m188.4,335.08l.12-.02c5.5-.81,10.61,2.99,11.42,8.49,0,0,1.1,3.88,1.15,11.27-.15,4.72-2.14,9.95,1.51,20.62.41,2.52,12.58,19.01,14.63,32.93,2.57,17.44-3.01,32.22-3.01,32.22l-20.28,2.98s-9.6-13.44-12.17-30.88c-2.02-13.7,3.6-23.6,5.19-35.59.42-8.6-3.03-14.71-4.62-19.28-2.13-6.14-2.64-11.05-2.64-11.05-.83-5.63,3.07-10.87,8.7-11.7Z"/>
  <path id="Rectángulo_10-39" data-name="Rectángulo 10" class="cls-1" d="m162.63,334.5h.13c5.56,0,10.06,4.5,10.06,10.06,0,0,.52,4-.5,11.32-.84,4.65-3.56,9.53-1.51,20.62.04,2.55,9.68,20.64,9.68,34.71,0,17.63-7.67,31.44-7.67,31.44h-20.5s-7.55-14.69-7.55-32.32c0-13.85,7-22.83,10.31-34.46,1.67-8.45-.86-15-1.76-19.74-1.22-6.38-1.01-11.32-1.01-11.32,0-5.7,4.62-10.31,10.31-10.31Z"/>
  <path id="Rectángulo_10-40" data-name="Rectángulo 10" class="cls-1" d="m147.84,346.09l.12.03c5.4,1.3,8.73,6.74,7.43,12.14,0,0-.43,4.01-3.14,10.89-1.91,4.32-5.7,8.44-6.3,19.7-.56,2.49,4.58,22.33,1.29,36.01-4.13,17.14-14.82,28.77-14.82,28.77l-19.93-4.8s-3.89-16.05.23-33.19c3.24-13.46,12.15-20.55,18.1-31.09,3.6-7.82,2.68-14.78,2.91-19.61.31-6.49,1.67-11.24,1.67-11.24,1.33-5.54,6.9-8.94,12.44-7.61Z"/>
  <path id="Rectángulo_10-41" data-name="Rectángulo 10" class="cls-1" d="m127.36,450.12l.12.03c5.35,1.52,8.45,7.08,6.93,12.43,0,0-.59,3.99-3.57,10.75-2.08,4.24-6.03,8.2-7.08,19.43-.66,2.47,3.68,22.5-.16,36.04-4.81,16.96-15.96,28.15-15.96,28.15l-19.72-5.6s-3.25-16.2,1.56-33.15c3.78-13.32,12.97-20.05,19.33-30.33,3.91-7.67,3.27-14.66,3.7-19.48.57-6.47,2.12-11.16,2.12-11.16,1.55-5.48,7.26-8.66,12.74-7.11Z"/>
  <path id="Rectángulo_10-42" data-name="Rectángulo 10" class="cls-1" d="m95.56,448.81l.12.03c5.36,1.46,8.53,6.99,7.07,12.35,0,0-.54,3.99-3.46,10.79-2.03,4.27-5.94,8.26-6.87,19.5-.63,2.48,3.93,22.45.23,36.03-4.63,17.01-15.66,28.32-15.66,28.32l-19.78-5.38s-3.42-16.16,1.21-33.17c3.64-13.36,12.75-20.19,19-30.54,3.82-7.71,3.11-14.7,3.49-19.51.5-6.48,2-11.19,2-11.19,1.5-5.5,7.16-8.74,12.66-7.24Z"/>
  <path id="Rectángulo_10-43" data-name="Rectángulo 10" class="cls-1" d="m77.45,459.89l.1.08c4.26,3.57,4.81,9.92,1.23,14.17,0,0-2.17,3.4-7.66,8.34-3.63,3.02-8.86,5.01-14.42,14.82-1.61,1.98-5.85,22.03-14.91,32.81-11.33,13.5-26.09,19.14-26.09,19.14l-15.7-13.18s3.67-16.1,15.01-29.6c8.9-10.6,20.04-12.98,30.06-19.76,6.71-5.4,8.99-12.04,11.35-16.25,3.17-5.67,6.51-9.31,6.51-9.31,3.66-4.36,10.17-4.93,14.53-1.27Z"/>
</svg>