<svg xmlns="http://www.w3.org/2000/svg" width="852" height="2580" viewBox="0 0 284 860">
  <defs>
    <style>
      .cls-1 {
        fill: #f1f1f1;
        fill-rule: evenodd;
      }
    </style>
  </defs>
  <path id="Rectángulo_10" data-name="Rectángulo 10" class="cls-1" d="M1318,138h1a80,80,0,0,1,80,80s4.16,31.777-4,90c-6.68,36.969-28.32,75.813-12,164,0.31,20.313,77,164.083,77,276,0,140.151-61,250-61,250H1236s-60-116.836-60-257c0-110.091,55.67-181.524,82-274,13.24-67.158-6.81-119.26-14-157-9.67-50.767-8-90-8-90A82,82,0,0,1,1318,138Z" transform="translate(-1176 -138)"/>
</svg>
