<svg id="Capa_1" data-name="Capa 1" xmlns="http://www.w3.org/2000/svg" viewBox="0 0 301.12941 418.42413"><defs><style>.cls-1{fill:#b6b6b7;}</style></defs><path class="cls-1" d="M354.75,232.38c-37.27,11.29-90.35,25.42-101.64,38.97-16.56,19.86-20.9,54.21-34.45,95.43005-11.3-37.27-23.72-90.35-37.27-101.64-19.87-16.56-57.17179-19.21-98.40177-32.76C120.25819,221.09,176.31,206.97,187.6,193.42c16.55-19.87,17.70914-54.21,31.26914-95.44C230.15916,135.25,245.76,188.34,259.32,199.63,279.18,216.19,313.53,218.83,354.75,232.38Z" transform="translate(-82.98824 -67.98563)"/><path class="cls-1" d="M384.11765,132.42706c-17.87,5.41326-43.32055,12.18825-48.73384,18.68513-7.9401,9.52239-10.021,25.99234-16.51791,45.75631-5.41806-17.87-11.37313-43.32057-17.87-48.73383-9.52717-7.94011-27.41244-9.21073-47.18118-15.70761,17.87-5.41326,44.74544-12.18347,50.1587-18.68035,7.93533-9.52716,8.49109-25.99231,14.99277-45.76108,5.41329,17.87,12.8935,43.32537,19.39518,48.73863C347.88373,124.66436,364.35371,125.93018,384.11765,132.42706Z" transform="translate(-82.98824 -67.98563)"/><path class="cls-1" d="M384.11765,395.0153c-25.34429,7.67739-61.43963,17.286-69.11706,26.50029-11.2611,13.50519-14.21236,36.8638-23.42664,64.89417-7.68419-25.34429-16.13-61.43967-25.34425-69.11706-13.51195-11.2611-38.87786-13.06316-66.915-22.2774,25.34425-7.67739,63.46049-17.27929,71.13788-26.49352,11.25434-13.512,12.04254-36.86376,21.26359-64.90094,7.67743,25.34429,18.28629,61.44647,27.50734,69.12386C332.72867,384.0058,356.08732,385.80106,384.11765,395.0153Z" transform="translate(-82.98824 -67.98563)"/></svg>