<svg id="Capa_1" data-name="Capa 1" xmlns="http://www.w3.org/2000/svg" viewBox="0 0 431.33 358.05"><defs><style>.cls-1{fill:#a3a2a2;}</style></defs><path class="cls-1" d="M193,559.13v0Z" transform="translate(-71.61 -252.08)"/><path class="cls-1" d="M502.94,585.39c-72.55,32.27-148.54,5.19-215.66-26.26C220.48,527.83,162.45,492.22,132,495c-12.31,1.14-40.1,10.22-39,46.37,0,37.83,27.78,46.06,47.44,47.37,50,3.32,52.44-28.52,52.51-29.62-1.7,37.3-21.34,50.19-44.89,50.79-11.73.3-76.53,5.37-76.52-69.17,0-53.19,28-73.47,67.2-71,49.27,3.09,110,51.25,165,76.66C403.18,592.28,502.94,585.39,502.94,585.39Z" transform="translate(-71.61 -252.08)"/><path class="cls-1" d="M304,512.54s-168.57-72-166.87-175.34,160.09-111.81,179.57-29.65S278.58,399,278.58,399,337,339.18,276,290.61c0,0-30.27-27.39-83-1.69,0,0-54.47,45.49,0,119.43C193,408.35,234.53,458.33,304,512.54Z" transform="translate(-71.61 -252.08)"/><path class="cls-1" d="M456.46,563.36s-82.17,17.79-133-50.82,10.17-125.78,35.58-130.23,77.93-11.23,91.48,57.38c0,0,2.54,67.77-65.22,51.67,70.3-3.38,44-84.62.84-88.94-33.88-3.38-58.44,28.8-58.44,55.91S365.82,565.91,456.46,563.36Z" transform="translate(-71.61 -252.08)"/></svg>